<?xml version="1.0" encoding="UTF-8" standalone="no"?>
<!-- Created with Inkscape (http://www.inkscape.org/) -->
<svg
   xmlns:dc="http://purl.org/dc/elements/1.1/"
   xmlns:cc="http://creativecommons.org/ns#"
   xmlns:rdf="http://www.w3.org/1999/02/22-rdf-syntax-ns#"
   xmlns:svg="http://www.w3.org/2000/svg"
   xmlns="http://www.w3.org/2000/svg"
   xmlns:sodipodi="http://sodipodi.sourceforge.net/DTD/sodipodi-0.dtd"
   xmlns:inkscape="http://www.inkscape.org/namespaces/inkscape"
   width="227.48453"
   height="80.058792"
   id="svg2"
   sodipodi:version="0.32"
   inkscape:version="0.46"
   version="1.0"
   sodipodi:docname="logo.svg"
   inkscape:output_extension="org.inkscape.output.svg.inkscape"
   inkscape:export-filename="/home/stephen/Code/bhspitmonkey-code/wii/piing/logo.png"
   inkscape:export-xdpi="89.933907"
   inkscape:export-ydpi="89.933907">
  <defs
     id="defs4">
    <inkscape:perspective
       sodipodi:type="inkscape:persp3d"
       inkscape:vp_x="0 : 526.18109 : 1"
       inkscape:vp_y="0 : 1000 : 0"
       inkscape:vp_z="744.09448 : 526.18109 : 1"
       inkscape:persp3d-origin="372.04724 : 350.78739 : 1"
       id="perspective10" />
  </defs>
  <sodipodi:namedview
     id="base"
     pagecolor="#ffffff"
     bordercolor="#666666"
     borderopacity="1.0"
     gridtolerance="10000"
     guidetolerance="10"
     objecttolerance="10"
     inkscape:pageopacity="0.0"
     inkscape:pageshadow="2"
     inkscape:zoom="1"
     inkscape:cx="177.28188"
     inkscape:cy="152.04798"
     inkscape:document-units="px"
     inkscape:current-layer="layer1"
     showgrid="false"
     inkscape:window-width="1022"
     inkscape:window-height="715"
     inkscape:window-x="4"
     inkscape:window-y="68" />
  <metadata
     id="metadata7">
    <rdf:RDF>
      <cc:Work
         rdf:about="">
        <dc:format>image/svg+xml</dc:format>
        <dc:type
           rdf:resource="http://purl.org/dc/dcmitype/StillImage" />
      </cc:Work>
    </rdf:RDF>
  </metadata>
  <g
     inkscape:label="Layer 1"
     inkscape:groupmode="layer"
     id="layer1"
     transform="translate(-72.702003,-556.11218)">
    <rect
       style="opacity:1;fill:#112b00;fill-opacity:1;fill-rule:evenodd;stroke:none;stroke-width:1px;stroke-linecap:butt;stroke-linejoin:miter;marker:none;marker-start:none;marker-mid:none;marker-end:none;stroke-miterlimit:4;stroke-dasharray:none;stroke-dashoffset:0;stroke-opacity:1;visibility:visible;display:inline;overflow:visible;enable-background:accumulate"
       id="rect2399"
       width="227.48453"
       height="80.058792"
       x="72.702003"
       y="556.11218" />
    <g
       id="g2401"
       transform="matrix(5.2131396,0,0,5.2131396,-565.35337,-2343.799)">
      <path
         style="font-size:10px;font-style:normal;font-weight:normal;text-align:start;text-anchor:start;fill:#7fff2a;fill-opacity:1;stroke:none;stroke-width:1px;stroke-linecap:butt;stroke-linejoin:miter;stroke-opacity:1;font-family:Bitstream Vera Sans"
         d="M 132.16376,558.33657 L 134.63043,558.33657 C 135.34153,558.33658 135.95264,558.5838 136.46376,559.07824 C 136.97487,559.57269 137.23042,560.17547 137.23043,560.88657 C 137.23042,561.61436 136.9832,562.21713 136.48876,562.69491 C 136.19431,562.97824 135.83598,563.19769 135.41376,563.35324 C 135.28598,563.39769 135.0332,563.43658 134.65543,563.46991 C 134.2832,563.49769 133.98042,563.51158 133.74709,563.51157 C 133.69154,563.50602 133.6582,563.50324 133.64709,563.50324 L 133.66376,566.70324 L 132.16376,566.70324 L 132.16376,558.33657 M 133.66376,561.98657 L 134.71376,561.98657 C 134.99709,561.98658 135.23598,561.8838 135.43043,561.67824 C 135.63042,561.46713 135.73042,561.21436 135.73043,560.91991 C 135.73042,560.62547 135.63042,560.37269 135.43043,560.16157 C 135.23598,559.94491 134.99153,559.83658 134.69709,559.83657 L 133.66376,559.83657 L 133.66376,561.98657 M 138.10517,560.57824 L 139.52183,560.57824 L 139.52183,566.73657 L 138.10517,566.73657 L 138.10517,560.57824 M 138.83017,560.16991 C 138.5635,560.16991 138.35517,560.0838 138.20517,559.91157 C 138.05517,559.73936 137.98017,559.53658 137.98017,559.30324 C 137.98017,559.07547 138.05239,558.88102 138.19683,558.71991 C 138.34683,558.5588 138.55794,558.47825 138.83017,558.47824 C 139.07461,558.47825 139.27183,558.56714 139.42183,558.74491 C 139.55516,558.90602 139.62183,559.10047 139.62183,559.32824 C 139.62183,559.55047 139.54961,559.74769 139.40517,559.91991 C 139.26628,560.08658 139.07461,560.16991 138.83017,560.16991 M 140.6247,560.57824 L 142.04136,560.57824 L 142.04136,566.73657 L 140.6247,566.73657 L 140.6247,560.57824 M 141.3497,560.16991 C 141.08303,560.16991 140.8747,560.0838 140.7247,559.91157 C 140.5747,559.73936 140.4997,559.53658 140.4997,559.30324 C 140.4997,559.07547 140.57192,558.88102 140.71636,558.71991 C 140.86636,558.5588 141.07747,558.47825 141.3497,558.47824 C 141.59414,558.47825 141.79136,558.56714 141.94136,558.74491 C 142.0747,558.90602 142.14136,559.10047 142.14136,559.32824 C 142.14136,559.55047 142.06914,559.74769 141.9247,559.91991 C 141.78581,560.08658 141.59414,560.16991 141.3497,560.16991 M 143.06923,566.75324 L 143.06923,563.05324 C 143.06923,562.24769 143.35812,561.56158 143.9359,560.99491 C 144.51923,560.42269 145.21923,560.13658 146.0359,560.13657 C 146.83589,560.13658 147.51922,560.42269 148.0859,560.99491 C 148.65256,561.56713 148.93589,562.25602 148.9359,563.06157 L 148.9359,566.76157 L 147.42756,566.76157 L 147.42756,563.01157 C 147.42756,562.6338 147.28034,562.31435 146.9859,562.05324 C 146.697,561.78658 146.35534,561.65324 145.9609,561.65324 C 145.58312,561.65324 145.25534,561.7838 144.97756,562.04491 C 144.70534,562.30047 144.56923,562.61435 144.56923,562.98657 L 144.56923,566.75324 L 143.06923,566.75324 M 154.33537,566.43657 C 153.92981,566.63102 153.47982,566.72824 152.98537,566.72824 C 152.19093,566.72824 151.47426,566.49491 150.83537,566.02824 C 150.16871,565.53935 149.79093,564.92824 149.70204,564.19491 C 149.67426,563.95602 149.66037,563.75046 149.66037,563.57824 C 149.66037,562.55047 149.97426,561.72547 150.60204,561.10324 C 151.2076,560.50325 151.97982,560.20325 152.91871,560.20324 C 153.8187,560.20325 154.59648,560.49491 155.25204,561.07824 C 155.91315,561.66158 156.2437,562.38658 156.24371,563.25324 L 156.26037,566.51157 C 156.26037,567.23935 155.95204,567.8449 155.33537,568.32824 C 154.74648,568.78935 154.04648,569.0199 153.23537,569.01991 C 153.17426,569.0199 153.13259,569.0199 153.11037,569.01991 C 152.85482,569.0199 152.64371,569.00879 152.47704,568.98657 C 152.31037,568.9699 152.11871,568.92546 151.90204,568.85324 L 151.90204,567.46157 C 152.11315,567.52824 152.29648,567.57268 152.45204,567.59491 C 152.61315,567.61713 152.81037,567.62824 153.04371,567.62824 C 153.2437,567.62824 153.45482,567.60324 153.67704,567.55324 C 153.89926,567.50879 154.05481,567.46435 154.14371,567.41991 C 154.36593,567.30879 154.52148,567.20602 154.61037,567.11157 C 154.75481,566.95602 154.82704,566.75602 154.82704,566.51157 L 154.82704,563.34491 C 154.82704,562.84491 154.62426,562.4338 154.21871,562.11157 C 153.81315,561.7838 153.34093,561.61991 152.80204,561.61991 C 152.32426,561.61991 151.91037,561.80324 151.56037,562.16991 C 151.21037,562.53658 151.03537,562.96158 151.03537,563.44491 C 151.03537,563.52824 151.04371,563.61713 151.06037,563.71157 C 151.14371,564.22269 151.37982,564.62546 151.76871,564.91991 C 152.12426,565.19213 152.53537,565.32824 153.00204,565.32824 C 153.55759,565.32824 154.00204,565.14491 154.33537,564.77824 L 154.33537,566.43657"
         id="text2391" />
      <path
         style="font-size:2.11322474px;font-style:normal;font-variant:normal;font-weight:bold;font-stretch:normal;text-align:start;text-anchor:start;fill:#7fff2a;fill-opacity:1;stroke:none;stroke-width:1px;stroke-linecap:butt;stroke-linejoin:miter;stroke-opacity:1;font-family:Brandish;-inkscape-font-specification:Brandish Bold"
         d="M 132.82943,567.80408 C 133.01375,567.80408 133.17107,567.86982 133.30138,568.00131 C 133.43287,568.13163 133.49862,568.28895 133.49862,568.47327 C 133.49862,568.65406 133.4364,568.80903 133.31195,568.93818 C 133.1875,569.06614 133.03547,569.13013 132.85585,569.13013 C 132.66918,569.13013 132.50834,569.07143 132.37333,568.95402 C 132.23362,568.8331 132.16377,568.68342 132.16377,568.50496 L 132.16377,567.36911 L 132.44201,567.36911 L 132.44201,568.49616 C 132.44201,568.59713 132.48134,568.68342 132.56,568.75503 C 132.63983,568.82547 132.7314,568.86069 132.83471,568.86069 C 132.84411,568.86069 132.85115,568.86069 132.85585,568.86069 C 132.86289,568.86069 132.87463,568.85952 132.89107,568.85717 C 132.98499,568.84308 133.0613,568.79788 133.12,568.72157 C 133.1787,568.64409 133.20805,568.55603 133.20805,568.45742 C 133.20805,568.43159 133.20511,568.40283 133.19925,568.37113 C 133.18046,568.2819 133.13467,568.21264 133.06189,568.16333 C 132.99731,568.11872 132.921,568.09641 132.83295,568.09641 C 132.7719,568.09641 132.71379,568.10815 132.65861,568.13163 C 132.60461,568.15394 132.56058,568.18622 132.52654,568.22848 L 132.52654,567.88861 C 132.58289,567.85691 132.6322,567.83519 132.67446,567.82345 C 132.71673,567.81054 132.76838,567.80408 132.82943,567.80408 M 133.64715,567.7671 L 133.94652,567.7671 L 133.94652,568.59478 C 133.94652,568.66522 133.97411,568.72333 134.02929,568.76912 C 134.08447,568.8149 134.14963,568.8378 134.22476,568.8378 C 134.29638,568.8378 134.35919,568.81667 134.41319,568.7744 C 134.46837,568.73096 134.49596,568.67578 134.49596,568.60886 L 134.49596,567.7671 L 134.79534,567.7671 L 134.79534,569.17591 C 134.79533,569.26866 134.7519,569.35143 134.66502,569.42422 C 134.59106,569.48644 134.51122,569.52342 134.42552,569.53516 C 134.3856,569.54338 134.34334,569.54925 134.29873,569.55277 C 134.25529,569.55747 134.21068,569.55982 134.16489,569.55982 C 134.12263,569.55982 134.0833,569.55688 134.0469,569.55101 C 134.01168,569.54631 133.97822,569.53751 133.94652,569.5246 L 133.94652,569.21113 C 133.99114,569.23579 134.03399,569.25222 134.07508,569.26044 C 134.11617,569.26983 134.16606,569.27453 134.22476,569.27453 C 134.2412,569.27453 134.25411,569.27453 134.26351,569.27453 C 134.32103,569.27453 134.36154,569.27101 134.38502,569.26396 C 134.42493,569.25222 134.4537,569.22757 134.47131,569.19 C 134.48422,569.16417 134.49068,569.13835 134.49068,569.11252 C 134.49068,569.09843 134.48774,569.07964 134.48187,569.05616 C 134.43139,569.08317 134.38267,569.10195 134.33571,569.11252 C 134.28992,569.12191 134.23533,569.1266 134.17193,569.1266 C 134.08975,569.1266 134.0199,569.11428 133.96237,569.08962 C 133.90602,569.06497 133.84908,569.02212 133.79155,568.96107 C 133.74107,568.90706 133.70409,568.85306 133.68061,568.79906 C 133.6583,568.74388 133.64715,568.68048 133.64715,568.60886 L 133.64715,567.7671 M 136.98467,568.3271 C 137.01637,568.37289 137.03926,568.41633 137.05335,568.45742 C 137.06744,568.49733 137.07448,568.54253 137.07448,568.59302 C 137.07448,568.73977 137.02693,568.86715 136.93184,568.97516 C 136.83674,569.08317 136.71875,569.13717 136.57787,569.13717 L 135.98617,569.13717 L 135.98617,567.36735 L 136.58844,567.36735 C 136.70114,567.36735 136.79683,567.40844 136.87549,567.49062 C 136.95532,567.57163 136.99523,567.66966 136.99524,567.78471 C 136.99523,567.8305 136.99171,567.86748 136.98467,567.89565 C 136.97762,567.92383 136.96295,567.95729 136.94064,567.99603 C 136.92303,568.02773 136.89368,568.0606 136.85259,568.09465 C 136.82207,568.12048 136.80094,568.13926 136.7892,568.151 L 136.83498,568.1827 C 136.87842,568.21322 136.90836,568.2367 136.92479,568.25314 C 136.94123,568.2684 136.96119,568.29306 136.98467,568.3271 M 136.30492,568.81314 L 136.48102,568.81314 C 136.55498,568.81314 136.61896,568.79142 136.67297,568.74799 C 136.72815,568.70455 136.75574,568.64878 136.75574,568.58069 C 136.75574,568.51494 136.73108,568.45977 136.68177,568.41515 C 136.63364,568.37054 136.57553,568.34823 136.50743,568.34823 L 136.30492,568.34823 L 136.30492,568.81314 M 136.30139,568.03829 L 136.48454,568.03829 C 136.53267,568.0383 136.57318,568.0201 136.60605,567.9837 C 136.6401,567.94614 136.65712,567.90211 136.65712,567.85163 C 136.65712,567.80467 136.64303,567.76358 136.61486,567.72835 C 136.58785,567.69314 136.55263,567.67553 136.50919,567.67552 L 136.30139,567.67552 L 136.30139,568.03829 M 137.27667,567.36558 L 137.61478,567.36558 L 137.61478,568.09112 L 138.07617,568.09112 L 138.07617,567.36558 L 138.40372,567.36558 L 138.40372,569.13013 L 138.07617,569.13013 L 138.07617,568.41515 L 137.61478,568.41515 L 137.61478,569.13013 L 137.27667,569.13013 L 137.27667,567.36558 M 138.60173,569.13013 L 138.60173,568.80258 L 138.70387,568.79906 C 138.76022,568.79906 138.80542,568.76384 138.83946,568.69339 C 138.86412,568.64291 138.8876,568.55721 138.90991,568.43628 C 138.94513,568.24962 138.96567,568.14396 138.97154,568.1193 C 139.00089,567.99368 139.03142,567.89037 139.06311,567.80936 C 139.11242,567.68257 139.16995,567.58395 139.23569,567.51351 C 139.32022,567.42429 139.41767,567.37967 139.52802,567.37967 L 139.65129,567.37263 L 139.65129,567.70018 L 139.57733,567.70018 C 139.51041,567.70018 139.45171,567.74186 139.40123,567.82521 C 139.36014,567.8933 139.32492,567.98605 139.29557,568.10345 C 139.27444,568.18916 139.258,568.28132 139.24626,568.37993 C 139.22161,568.58539 139.17406,568.75268 139.10362,568.88182 C 139.01674,569.04266 138.90227,569.12308 138.76022,569.12308 L 138.60173,569.13013 M 139.86449,567.35502 L 140.38575,567.35502 C 140.53602,567.35502 140.66516,567.40726 140.77318,567.51175 C 140.88118,567.61624 140.93519,567.74362 140.93519,567.89389 C 140.93519,568.04769 140.88294,568.17507 140.77846,568.27603 C 140.71623,568.33591 140.64051,568.38228 140.55129,568.41515 C 140.52428,568.42455 140.47087,568.43276 140.39103,568.43981 C 140.31237,568.44568 140.24839,568.44861 140.19908,568.44861 C 140.18734,568.44744 140.1803,568.44685 140.17795,568.44685 L 140.18147,569.12308 L 139.86449,569.12308 L 139.86449,567.35502 M 140.18147,568.12635 L 140.40336,568.12635 C 140.46323,568.12635 140.51372,568.10463 140.55481,568.06119 C 140.59707,568.01658 140.6182,567.96316 140.61821,567.90093 C 140.6182,567.83871 140.59707,567.7853 140.55481,567.74068 C 140.51372,567.6949 140.46206,567.672 140.39984,567.672 L 140.18147,567.672 L 140.18147,568.12635 M 141.12004,567.82873 L 141.41941,567.82873 L 141.41941,569.13013 L 141.12004,569.13013 L 141.12004,567.82873 M 141.27325,567.74244 C 141.2169,567.74244 141.17287,567.72425 141.14117,567.68785 C 141.10948,567.65146 141.09363,567.60861 141.09363,567.5593 C 141.09363,567.51116 141.10889,567.47007 141.13941,567.43603 C 141.17111,567.40198 141.21572,567.38496 141.27325,567.38496 C 141.32491,567.38496 141.36658,567.40374 141.39828,567.44131 C 141.42646,567.47536 141.44055,567.51645 141.44055,567.56458 C 141.44055,567.61154 141.42528,567.65322 141.39476,567.68961 C 141.36541,567.72483 141.32491,567.74244 141.27325,567.74244 M 141.63134,567.37263 L 141.92719,567.37263 L 141.92719,567.72483 L 142.13147,567.72483 L 142.13147,568.03477 L 141.92719,568.03477 L 141.92719,568.61943 C 141.92719,568.65113 141.93248,568.67872 141.94304,568.7022 C 141.95478,568.72568 141.97298,568.74975 141.99763,568.7744 C 142.04459,568.82136 142.09977,568.84484 142.16317,568.84484 C 142.1843,568.84484 142.20074,568.84367 142.21248,568.84132 L 142.21248,569.13013 C 142.20426,569.13013 142.19487,569.13013 142.1843,569.13013 C 142.17491,569.1313 142.16845,569.13189 142.16493,569.13189 C 142.1121,569.13189 142.06044,569.12367 142.00996,569.10723 C 141.94774,569.08728 141.87906,569.05147 141.80392,568.99981 C 141.75814,568.96811 141.71881,568.9188 141.68593,568.85189 C 141.64954,568.77792 141.63134,568.70279 141.63134,568.62648 L 141.63134,567.37263 M 142.49116,567.89389 C 142.49116,567.75066 142.54282,567.62856 142.64613,567.5276 C 142.74944,567.42663 142.87389,567.37615 143.01947,567.37615 C 143.10165,567.37615 143.17209,567.38907 143.23079,567.41489 C 143.29066,567.44072 143.34819,567.48416 143.40337,567.54521 C 143.45855,567.48299 143.51725,567.43896 143.57947,567.41313 C 143.64287,567.38613 143.718,567.37263 143.80488,567.37263 C 143.94107,567.37263 144.05788,567.42076 144.15533,567.51703 C 144.25277,567.6133 144.30149,567.72953 144.30149,567.86571 L 144.30149,569.13013 L 143.98451,569.13013 L 143.98451,567.86924 C 143.98451,567.81406 143.96337,567.76827 143.92111,567.73188 C 143.88002,567.69431 143.83071,567.67553 143.77318,567.67552 C 143.71331,567.67553 143.66165,567.69783 143.61821,567.74244 C 143.57595,567.78588 143.55482,567.83871 143.55482,567.90093 L 143.55482,569.13013 L 143.22022,569.13013 L 143.22022,567.87276 C 143.22022,567.81875 143.20026,567.77356 143.16035,567.73716 C 143.12043,567.70077 143.0723,567.68257 143.01595,567.68257 C 142.95842,567.68257 142.90911,567.7037 142.86802,567.74596 C 142.8281,567.78706 142.80814,567.83754 142.80814,567.89741 L 142.80814,569.13013 L 142.49116,569.13013 L 142.49116,567.89389 M 145.14199,569.13189 C 144.92597,569.13189 144.75457,569.06086 144.62777,568.9188 C 144.51389,568.79084 144.45696,568.63352 144.45696,568.44685 C 144.45696,568.25784 144.51507,568.09758 144.6313,567.96609 C 144.76161,567.81934 144.93713,567.74597 145.15784,567.74596 C 145.37386,567.74597 145.54526,567.81699 145.67206,567.95905 C 145.78594,568.08702 145.84288,568.24433 145.84288,568.431 C 145.84288,568.62002 145.78476,568.78027 145.66854,568.91176 C 145.53822,569.05851 145.36271,569.13189 145.14199,569.13189 M 145.17193,568.03301 C 145.04396,568.03301 144.94241,568.07528 144.86727,568.1598 C 144.79918,568.23612 144.76513,568.32945 144.76513,568.43981 C 144.76513,568.54664 144.79742,568.63645 144.86199,568.70924 C 144.93478,568.79025 145.0334,568.83075 145.15784,568.83075 C 145.28581,568.83075 145.38736,568.78849 145.4625,568.70396 C 145.53059,568.62765 145.56464,568.53432 145.56464,568.42396 C 145.56464,568.31712 145.53235,568.22731 145.46778,568.15452 C 145.39499,568.07352 145.29637,568.03301 145.17193,568.03301 M 145.97864,569.13365 L 145.97864,568.35176 C 145.97864,568.18152 146.03969,568.03653 146.16179,567.91678 C 146.28506,567.79586 146.43298,567.7354 146.60557,567.7354 C 146.77462,567.7354 146.91903,567.79586 147.03878,567.91678 C 147.15852,568.03771 147.2184,568.18329 147.2184,568.35352 L 147.2184,569.13541 L 146.89966,569.13541 L 146.89966,568.34295 C 146.89965,568.26312 146.86854,568.19561 146.80632,568.14043 C 146.74527,568.08408 146.67307,568.05591 146.58972,568.0559 C 146.50988,568.05591 146.44062,568.08349 146.38192,568.13867 C 146.32439,568.19268 146.29563,568.25901 146.29563,568.33767 L 146.29563,569.13365 L 145.97864,569.13365 M 147.40144,569.13717 L 147.40144,567.38319 L 147.69024,567.38319 L 147.69024,568.42924 L 147.7149,568.42924 L 148.05301,567.85163 L 148.4017,567.85163 L 148.0354,568.47855 L 148.39817,569.13013 L 148.06358,569.13013 L 147.7149,568.54547 L 147.69377,568.54547 L 147.69377,569.13717 L 147.40144,569.13717 M 149.5375,568.34295 C 149.51167,568.24903 149.46236,568.17565 149.38957,568.12282 C 149.31796,568.06999 149.23226,568.04358 149.13247,568.04358 C 149.02211,568.04358 148.92584,568.08349 148.84366,568.16333 C 148.76265,568.24199 148.72215,568.33532 148.72215,568.44333 C 148.72215,568.46211 148.72273,568.4762 148.72391,568.48559 C 148.73682,568.60182 148.78554,568.69339 148.87007,568.76031 C 148.94521,568.82019 149.03443,568.85012 149.13775,568.85012 C 149.19645,568.85012 149.25163,568.84015 149.30328,568.82019 C 149.35494,568.79906 149.39897,568.76794 149.43536,568.72685 L 149.63612,568.93465 C 149.5645,569.00744 149.48936,569.06027 149.41071,569.09315 C 149.33205,569.12602 149.24106,569.14245 149.13775,569.14245 C 148.94404,569.14245 148.77791,569.07554 148.63938,568.9417 C 148.50085,568.80786 148.43158,568.64526 148.43158,568.4539 C 148.43158,568.26018 148.4985,568.09523 148.63234,567.95905 C 148.76735,567.82169 148.93112,567.75301 149.12366,567.75301 C 149.31737,567.75301 149.48643,567.82521 149.63083,567.96961 C 149.77641,568.11285 149.8492,568.28014 149.8492,568.47151 C 149.8492,568.49264 149.8492,568.51318 149.8492,568.53314 C 149.84568,568.55075 149.84333,568.56367 149.84216,568.57188 L 148.84894,568.57188 C 148.82781,568.57188 148.81431,568.56308 148.80844,568.54547 C 148.80257,568.52786 148.79963,568.50379 148.79963,568.47327 C 148.79963,568.46035 148.79963,568.45096 148.79963,568.44509 C 148.79963,568.42983 148.79963,568.41809 148.79963,568.40987 C 148.79963,568.38756 148.80198,568.37113 148.80668,568.36056 C 148.81137,568.34882 148.82252,568.34295 148.84014,568.34295 L 149.5375,568.34295 M 150.01226,567.7671 L 150.31163,567.7671 L 150.31163,568.59478 C 150.31163,568.66522 150.33922,568.72333 150.3944,568.76912 C 150.44958,568.8149 150.51474,568.8378 150.58987,568.8378 C 150.66149,568.8378 150.7243,568.81667 150.7783,568.7744 C 150.83348,568.73096 150.86107,568.67578 150.86107,568.60886 L 150.86107,567.7671 L 151.16044,567.7671 L 151.16044,569.17591 C 151.16044,569.26866 151.11701,569.35143 151.03013,569.42422 C 150.95617,569.48644 150.87633,569.52342 150.79063,569.53516 C 150.75071,569.54338 150.70845,569.54925 150.66384,569.55277 C 150.6204,569.55747 150.57579,569.55982 150.53,569.55982 C 150.48773,569.55982 150.44841,569.55688 150.41201,569.55101 C 150.37679,569.54631 150.34333,569.53751 150.31163,569.5246 L 150.31163,569.21113 C 150.35625,569.23579 150.3991,569.25222 150.44019,569.26044 C 150.48128,569.26983 150.53117,569.27453 150.58987,569.27453 C 150.60631,569.27453 150.61922,569.27453 150.62862,569.27453 C 150.68614,569.27453 150.72665,569.27101 150.75013,569.26396 C 150.79004,569.25222 150.81881,569.22757 150.83642,569.19 C 150.84933,569.16417 150.85579,569.13835 150.85579,569.11252 C 150.85579,569.09843 150.85285,569.07964 150.84698,569.05616 C 150.7965,569.08317 150.74778,569.10195 150.70082,569.11252 C 150.65503,569.12191 150.60044,569.1266 150.53704,569.1266 C 150.45486,569.1266 150.38501,569.11428 150.32748,569.08962 C 150.27113,569.06497 150.21419,569.02212 150.15666,568.96107 C 150.10618,568.90706 150.0692,568.85306 150.04572,568.79906 C 150.02341,568.74388 150.01226,568.68048 150.01226,568.60886 L 150.01226,567.7671"
         id="text2395" />
    </g>
    <g
       id="g2413"
       transform="matrix(5.2131396,0,0,5.2131396,-564.34091,-2342.7455)">
      <rect
         y="557.005"
         x="161.96428"
         height="8.0357141"
         width="2.8571429"
         id="rect2407"
         style="opacity:1;fill:#66ff00;fill-opacity:1;fill-rule:evenodd;stroke:none;stroke-width:1px;stroke-linecap:butt;stroke-linejoin:miter;marker:none;marker-start:none;marker-mid:none;marker-end:none;stroke-miterlimit:4;stroke-dasharray:none;stroke-dashoffset:0;stroke-opacity:1;visibility:visible;display:inline;overflow:visible;enable-background:accumulate" />
      <rect
         y="562.45148"
         x="123.21429"
         height="8.0357141"
         width="2.8571429"
         id="rect2409"
         style="opacity:1;fill:#66ff00;fill-opacity:1;fill-rule:evenodd;stroke:none;stroke-width:1px;stroke-linecap:butt;stroke-linejoin:miter;marker:none;marker-start:none;marker-mid:none;marker-end:none;stroke-miterlimit:4;stroke-dasharray:none;stroke-dashoffset:0;stroke-opacity:1;visibility:visible;display:inline;overflow:visible;enable-background:accumulate" />
    </g>
    <rect
       style="opacity:1;fill:#112b00;fill-opacity:1;fill-rule:evenodd;stroke:none;stroke-width:1px;stroke-linecap:butt;stroke-linejoin:miter;marker:none;marker-start:none;marker-mid:none;marker-end:none;stroke-miterlimit:4;stroke-dasharray:none;stroke-dashoffset:0;stroke-opacity:1;visibility:visible;display:inline;overflow:visible;enable-background:accumulate"
       id="rect2459"
       width="128"
       height="48"
       x="118.24545"
       y="435.28442"
       rx="8"
       ry="8"
       inkscape:export-filename="/home/stephen/Code/bhspitmonkey-code/wii/piing/icon.png"
       inkscape:export-xdpi="90"
       inkscape:export-ydpi="90" />
    <path
       id="path2463"
       d="M 125.83491,444.30637 L 134.01159,444.30637 C 136.36879,444.30641 138.39454,445.1259 140.08884,446.76491 C 141.7831,448.40394 142.63021,450.40208 142.63024,452.75927 C 142.63021,455.1718 141.81071,457.1699 140.17171,458.75368 C 139.19564,459.69288 138.00784,460.42033 136.60823,460.93596 C 136.18465,461.0833 135.34672,461.21222 134.09447,461.3227 C 132.86057,461.41479 131.8569,461.46083 131.08344,461.4608 C 130.8993,461.4424 130.78878,461.43318 130.75195,461.43318 L 130.80721,472.04076 L 125.83491,472.04076 L 125.83491,444.30637 M 130.80721,456.40563 L 134.28782,456.40563 C 135.22702,456.40566 136.01891,456.06496 136.66349,455.38355 C 137.32643,454.68375 137.65792,453.84585 137.65795,452.8698 C 137.65792,451.89377 137.32643,451.05584 136.66349,450.356 C 136.01891,449.6378 135.20859,449.2787 134.23256,449.27867 L 130.80721,449.27867 L 130.80721,456.40563 M 145.52989,451.7372 L 150.22593,451.7372 L 150.22593,472.15124 L 145.52989,472.15124 L 145.52989,451.7372 M 147.93316,450.38365 C 147.0492,450.38365 146.3586,450.0982 145.86138,449.52728 C 145.36415,448.95643 145.11553,448.28424 145.11553,447.51075 C 145.11553,446.75572 145.35494,446.11115 145.83373,445.57709 C 146.33097,445.04303 147.03076,444.77601 147.93316,444.77599 C 148.74346,444.77601 149.39721,445.07068 149.89444,445.65996 C 150.33641,446.19401 150.55741,446.83859 150.55741,447.59362 C 150.55741,448.33028 150.31802,448.98404 149.83921,449.55492 C 149.37881,450.10742 148.74346,450.38365 147.93316,450.38365 M 153.88179,451.7372 L 158.57784,451.7372 L 158.57784,472.15124 L 153.88179,472.15124 L 153.88179,451.7372 M 156.28507,450.38365 C 155.4011,450.38365 154.71051,450.0982 154.21328,449.52728 C 153.71605,448.95643 153.46744,448.28424 153.46744,447.51075 C 153.46744,446.75572 153.70684,446.11115 154.18563,445.57709 C 154.68287,445.04303 155.38266,444.77601 156.28507,444.77599 C 157.09536,444.77601 157.74911,445.07068 158.24635,445.65996 C 158.68835,446.19401 158.90931,446.83859 158.90931,447.59362 C 158.90931,448.33028 158.66992,448.98404 158.19112,449.55492 C 157.73072,450.10742 157.09536,450.38365 156.28507,450.38365 M 161.98509,472.2065 L 161.98509,459.9415 C 161.98509,457.27121 162.94271,454.99685 164.85798,453.11841 C 166.79165,451.22158 169.11205,450.27316 171.8192,450.27313 C 174.47106,450.27316 176.7362,451.22158 178.61468,453.11841 C 180.49308,455.01524 181.43228,457.29882 181.43231,459.96911 L 181.43231,472.23412 L 176.43236,472.23412 L 176.43236,459.80337 C 176.43236,458.55111 175.94435,457.49217 174.96832,456.62664 C 174.01065,455.74269 172.8781,455.30069 171.57058,455.30069 C 170.31829,455.30069 169.23174,455.73347 168.31094,456.59902 C 167.40857,457.44616 166.95738,458.48663 166.95738,459.72049 L 166.95738,472.2065 L 161.98509,472.2065 M 199.33082,471.15678 C 197.98646,471.80135 196.4948,472.12363 194.85575,472.12363 C 192.2223,472.12363 189.84663,471.35017 187.7288,469.80323 C 185.51891,468.18261 184.26662,466.15687 183.97197,463.72599 C 183.87988,462.9341 183.83383,462.25269 183.83383,461.68181 C 183.83383,458.27488 184.87434,455.54011 186.95534,453.4775 C 188.96269,451.48862 191.5225,450.49416 194.63479,450.49413 C 197.61813,450.49416 200.19637,451.46097 202.36946,453.39464 C 204.56096,455.32833 205.65669,457.73161 205.65672,460.60447 L 205.71194,471.4054 C 205.71194,473.8179 204.68987,475.82521 202.6457,477.42742 C 200.69361,478.95593 198.3732,479.72017 195.68448,479.72021 C 195.4819,479.72017 195.34377,479.72017 195.27012,479.72021 C 194.423,479.72017 193.7232,479.68335 193.17071,479.60969 C 192.61823,479.55443 191.9829,479.40712 191.26466,479.16772 L 191.26466,474.55452 C 191.96447,474.77552 192.57218,474.92284 193.08785,474.99653 C 193.6219,475.07017 194.27565,475.10701 195.04915,475.10701 C 195.71209,475.10701 196.41192,475.02414 197.14855,474.8584 C 197.88518,474.71105 198.40081,474.56373 198.6955,474.41643 C 199.43213,474.04808 199.94776,473.7074 200.24241,473.39432 C 200.72122,472.87869 200.96065,472.21572 200.96065,471.4054 L 200.96065,460.90834 C 200.96065,459.25091 200.28846,457.88813 198.94412,456.81998 C 197.59974,455.73347 196.03439,455.19021 194.24805,455.19021 C 192.66427,455.19021 191.29228,455.79791 190.13207,457.01338 C 188.97187,458.22883 188.39177,459.63766 188.39177,461.23983 C 188.39177,461.51606 188.41942,461.81072 188.47465,462.12378 C 188.7509,463.81806 189.53358,465.15319 190.82269,466.12926 C 192.00129,467.03163 193.36407,467.48282 194.91102,467.48282 C 196.7526,467.48282 198.22588,466.87511 199.33082,465.65964 L 199.33082,471.15678"
       style="font-size:10px;font-style:normal;font-weight:normal;text-align:start;text-anchor:start;fill:#7fff2a;fill-opacity:1;stroke:none;stroke-width:1px;stroke-linecap:butt;stroke-linejoin:miter;stroke-opacity:1;font-family:Bitstream Vera Sans" />
    <rect
       style="fill:#66ff00;fill-opacity:1;fill-rule:evenodd;stroke:none;stroke-width:1px;stroke-linecap:butt;stroke-linejoin:miter;marker:none;marker-start:none;marker-mid:none;marker-end:none;stroke-miterlimit:4;stroke-dasharray:none;stroke-dashoffset:0;stroke-opacity:1;visibility:visible;display:inline;overflow:visible;enable-background:accumulate"
       id="rect2469"
       width="7.9296312"
       height="22.302088"
       x="234.08142"
       y="448.67169" />
    <rect
       style="opacity:1;fill:#ffffff;fill-opacity:1;fill-rule:evenodd;stroke:none;stroke-width:1px;stroke-linecap:butt;stroke-linejoin:miter;marker:none;marker-start:none;marker-mid:none;marker-end:none;stroke-miterlimit:4;stroke-dasharray:none;stroke-dashoffset:0;stroke-opacity:1;visibility:visible;display:inline;overflow:visible;enable-background:accumulate"
       id="rect2477"
       width="6.5"
       height="6.5"
       x="225.20201"
       y="460.67096" />
    <rect
       style="opacity:1;fill:#ffffff;fill-opacity:1;fill-rule:evenodd;stroke:none;stroke-width:1px;stroke-linecap:butt;stroke-linejoin:miter;marker:none;marker-start:none;marker-mid:none;marker-end:none;stroke-miterlimit:4;stroke-dasharray:none;stroke-dashoffset:0;stroke-opacity:1;visibility:visible;display:inline;overflow:visible;enable-background:accumulate"
       id="rect2479"
       width="6.5"
       height="6.5"
       x="183.70201"
       y="260.67096" />
    <rect
       style="opacity:0.43396226;fill:#ffffff;fill-opacity:0.58762882999999999;fill-rule:evenodd;stroke:none;stroke-width:1px;stroke-linecap:butt;stroke-linejoin:miter;marker:none;marker-start:none;marker-mid:none;marker-end:none;stroke-miterlimit:4;stroke-dasharray:none;stroke-dashoffset:0;stroke-opacity:1;visibility:visible;display:inline;overflow:visible;enable-background:accumulate"
       id="rect2483"
       width="6.5"
       height="6.5"
       x="221.20201"
       y="464.67096" />
    <rect
       style="opacity:0.43396226;fill:#ffffff;fill-opacity:0.43298967999999999;fill-rule:evenodd;stroke:none;stroke-width:1px;stroke-linecap:butt;stroke-linejoin:miter;marker:none;marker-start:none;marker-mid:none;marker-end:none;stroke-miterlimit:4;stroke-dasharray:none;stroke-dashoffset:0;stroke-opacity:1;visibility:visible;display:inline;overflow:visible;enable-background:accumulate"
       id="rect2487"
       width="6.5"
       height="6.5"
       x="217.20201"
       y="468.67096" />
    <rect
       style="opacity:0.43396226;fill:#ffffff;fill-opacity:0.35294118000000002;fill-rule:evenodd;stroke:none;stroke-width:1px;stroke-linecap:butt;stroke-linejoin:miter;marker:none;marker-start:none;marker-mid:none;marker-end:none;stroke-miterlimit:4;stroke-dasharray:none;stroke-dashoffset:0;stroke-opacity:1;visibility:visible;display:inline;overflow:visible;enable-background:accumulate"
       id="rect3259"
       width="6.5"
       height="6.5"
       x="213.20201"
       y="472.67096" />
  </g>
</svg>
