<?xml version="1.0" encoding="UTF-8" standalone="no"?>
<!-- Created with Inkscape (http://www.inkscape.org/) -->
<svg
   xmlns:dc="http://purl.org/dc/elements/1.1/"
   xmlns:cc="http://creativecommons.org/ns#"
   xmlns:rdf="http://www.w3.org/1999/02/22-rdf-syntax-ns#"
   xmlns:svg="http://www.w3.org/2000/svg"
   xmlns="http://www.w3.org/2000/svg"
   xmlns:xlink="http://www.w3.org/1999/xlink"
   xmlns:sodipodi="http://sodipodi.sourceforge.net/DTD/sodipodi-0.dtd"
   xmlns:inkscape="http://www.inkscape.org/namespaces/inkscape"
   width="733.63617"
   height="275.11356"
   id="svg2"
   sodipodi:version="0.32"
   inkscape:version="0.46"
   sodipodi:docname="logo.svg"
   inkscape:output_extension="org.inkscape.output.svg.inkscape"
   version="1.0"
   inkscape:export-filename="/home/stephen/Code/bhspitmonkey-code/wii/briicks/icon.png"
   inkscape:export-xdpi="15.7"
   inkscape:export-ydpi="15.7">
  <sodipodi:namedview
     id="base"
     pagecolor="#ffffff"
     bordercolor="#666666"
     borderopacity="1.0"
     gridtolerance="10000"
     guidetolerance="10"
     objecttolerance="10"
     inkscape:pageopacity="0.0"
     inkscape:pageshadow="2"
     inkscape:zoom="0.7"
     inkscape:cx="1249.7296"
     inkscape:cy="185.11298"
     inkscape:document-units="px"
     showgrid="false"
     inkscape:window-width="1353"
     inkscape:window-height="715"
     inkscape:window-x="4"
     inkscape:window-y="68"
     inkscape:current-layer="layer1" />
  <defs
     id="defs4">
    <inkscape:perspective
       id="perspective10"
       inkscape:persp3d-origin="372.04724 : 350.78739 : 1"
       inkscape:vp_z="744.09448 : 526.18109 : 1"
       inkscape:vp_y="0 : 1000 : 0"
       inkscape:vp_x="0 : 526.18109 : 1"
       sodipodi:type="inkscape:persp3d" />
  </defs>
  <metadata
     id="metadata7">
    <rdf:RDF>
      <cc:Work
         rdf:about="">
        <dc:format>image/svg+xml</dc:format>
        <dc:type
           rdf:resource="http://purl.org/dc/dcmitype/StillImage" />
      </cc:Work>
    </rdf:RDF>
  </metadata>
  <g
     id="layer1"
     inkscape:groupmode="layer"
     inkscape:label="Layer 1"
     transform="translate(-824.03906,-284.80017)">
    <text
       id="text2383"
       y="404.52072"
       x="93.827927"
       style="font-size:160.22225952px;font-style:normal;font-variant:normal;font-weight:bold;font-stretch:normal;text-align:start;text-anchor:start;fill:#000000;fill-opacity:1;stroke:none;stroke-width:1px;stroke-linecap:butt;stroke-linejoin:miter;stroke-opacity:1;font-family:Brandish;-inkscape-font-specification:Brandish Bold"
       xml:space="preserve"><tspan
         y="404.52072"
         x="93.827927"
         id="tspan2385"
         sodipodi:role="line"><tspan
           id="tspan2387"
           style="fill:#800000">B</tspan><tspan
           dx="-5.7142859"
           id="tspan2395"
           style="fill:#803300">r</tspan><tspan
           dx="-5.7142859"
           id="tspan2397"
           style="fill:#005500">i</tspan><tspan
           dx="-5.7142859"
           id="tspan2399"
           style="fill:#004455">i</tspan><tspan
           dx="-5.7142859"
           id="tspan2401"
           style="fill:#808000">c</tspan><tspan
           dx="-5.7142859"
           id="tspan2403"
           style="fill:#501644">k</tspan><tspan
           dx="-5.7142859"
           id="tspan2405"
           style="fill:#004455">s</tspan></tspan></text>
    <flowRoot
       style="font-size:10px;font-style:normal;font-weight:normal;text-align:end;text-anchor:end;fill:#000000;fill-opacity:1;stroke:none;stroke-width:1px;stroke-linecap:butt;stroke-linejoin:miter;stroke-opacity:1;font-family:Bitstream Vera Sans"
       id="flowRoot2409"
       xml:space="preserve"><flowRegion
         id="flowRegion2411"><rect
           y="478.07648"
           x="180"
           height="22.857143"
           width="122.85714"
           id="rect2413" /></flowRegion><flowPara
         id="flowPara2415" /></flowRoot>    <rect
       y="466.64789"
       x="145.71428"
       height="25.714285"
       width="122.85714"
       id="rect2417"
       style="opacity:1;fill:#000000;fill-opacity:1;fill-rule:evenodd;stroke:none;stroke-width:1px;stroke-linecap:butt;stroke-linejoin:miter;marker:none;marker-start:none;marker-mid:none;marker-end:none;stroke-miterlimit:4;stroke-dasharray:none;stroke-dashoffset:0;stroke-opacity:1;visibility:visible;display:inline;overflow:visible;enable-background:accumulate" />
    <rect
       y="284.80017"
       x="824.03906"
       height="275.11356"
       width="733.63617"
       id="rect2419"
       style="opacity:1;fill:#1a1a1a;fill-opacity:1;fill-rule:evenodd;stroke:none;stroke-width:1px;stroke-linecap:butt;stroke-linejoin:miter;marker:none;marker-start:none;marker-mid:none;marker-end:none;stroke-miterlimit:4;stroke-dasharray:none;stroke-dashoffset:0;stroke-opacity:1;visibility:visible;display:inline;overflow:visible;enable-background:accumulate"
       rx="42.857128"
       ry="42.857128"
       inkscape:export-filename="/home/stephen/Wii/development/projects/briicks/icon200.png"
       inkscape:export-xdpi="24.540001"
       inkscape:export-ydpi="24.540001" />
    <g
       id="g7322"
       transform="matrix(1.0726954,0,0,1,-82.947538,0)">
      <path
         inkscape:tile-y0="577.59049"
         inkscape:tile-x0="834.386"
         inkscape:tile-h="0"
         inkscape:tile-w="727.3098"
         inkscape:tile-cy="577.59049"
         inkscape:tile-cx="1198.0409"
         id="path7128"
         d="M 835.25399,272.61152 L 1539.7066,272.61152"
         style="fill:none;fill-rule:evenodd;stroke:#ffffff;stroke-width:5.79312688999999992;stroke-linecap:butt;stroke-linejoin:miter;stroke-miterlimit:4;stroke-dasharray:none;stroke-opacity:0.07731958" />
      <use
         transform="matrix(0.9058494,0,0,1,111.80196,20)"
         height="1052.3622"
         width="744.09448"
         id="use7290"
         xlink:href="#path7128"
         y="0"
         x="0" />
      <use
         height="1052.3622"
         width="744.09448"
         transform="matrix(0.9529247,0,0,1,55.900982,40)"
         id="use7292"
         xlink:href="#path7128"
         y="0"
         x="0" />
      <use
         height="1052.3622"
         width="744.09448"
         transform="translate(0,60.000003)"
         id="use7294"
         xlink:href="#path7128"
         y="0"
         x="0" />
      <use
         height="1052.3622"
         width="744.09448"
         transform="translate(0,80.000003)"
         id="use7296"
         xlink:href="#path7128"
         y="0"
         x="0" />
      <use
         height="1052.3622"
         width="744.09448"
         transform="translate(0,100)"
         id="use7298"
         xlink:href="#path7128"
         y="0"
         x="0" />
      <use
         height="1052.3622"
         width="744.09448"
         transform="translate(0,120)"
         id="use7300"
         xlink:href="#path7128"
         y="0"
         x="0" />
      <use
         height="1052.3622"
         width="744.09448"
         transform="translate(0,140)"
         id="use7302"
         xlink:href="#path7128"
         y="0"
         x="0" />
      <use
         height="1052.3622"
         width="744.09448"
         transform="translate(0,160)"
         id="use7304"
         xlink:href="#path7128"
         y="0"
         x="0" />
      <use
         height="1052.3622"
         width="744.09448"
         transform="translate(0,180)"
         id="use7306"
         xlink:href="#path7128"
         y="0"
         x="0" />
      <use
         height="1052.3622"
         width="744.09448"
         transform="translate(0,200)"
         id="use7308"
         xlink:href="#path7128"
         y="0"
         x="0" />
      <use
         height="1052.3622"
         width="744.09448"
         transform="translate(0,220)"
         id="use7310"
         xlink:href="#path7128"
         y="0"
         x="0" />
      <use
         height="1052.3622"
         width="744.09448"
         transform="translate(0,240)"
         id="use7312"
         xlink:href="#path7128"
         y="0"
         x="0" />
      <use
         height="1052.3622"
         width="744.09448"
         transform="matrix(0.9435096,0,0,1,67.081178,260)"
         id="use7314"
         xlink:href="#path7128"
         y="0"
         x="0" />
      <use
         height="1052.3622"
         width="744.09448"
         transform="matrix(0.8983174,0,0,1,120.74612,280)"
         id="use7316"
         xlink:href="#path7128"
         y="0"
         x="0" />
    </g>
    <g
       id="g7117"
       transform="translate(20.203051,-146.80643)">
      <path
         id="path2463"
         style="font-size:160.22225952px;font-style:normal;font-variant:normal;font-weight:bold;font-stretch:normal;text-align:start;text-anchor:start;fill:#ff2a2a;fill-opacity:1;stroke:none;stroke-width:1px;stroke-linecap:butt;stroke-linejoin:miter;stroke-opacity:1;font-family:Brandish;-inkscape-font-specification:Brandish Bold"
         d="M 1048.6289,340.09732 C 1051.0322,343.56886 1052.7679,346.86232 1053.8362,349.9777 C 1054.9042,353.00416 1055.4383,356.43114 1055.4384,360.25862 C 1055.4383,371.3852 1051.8333,381.04303 1044.6234,389.23215 C 1037.4133,397.42129 1028.4676,401.51585 1017.7862,401.51586 L 972.92392,401.51586 L 972.92392,267.32971 L 1018.5873,267.32971 C 1027.1324,267.32985 1034.3869,270.44528 1040.3508,276.67601 C 1046.4035,282.81798 1049.43,290.25051 1049.4301,298.97361 C 1049.43,302.44519 1049.1629,305.24908 1048.6289,307.38528 C 1048.0948,309.52167 1046.9821,312.05852 1045.291,314.99584 C 1043.9557,317.39925 1041.7304,319.8916 1038.615,322.47287 C 1036.3007,324.43122 1034.6984,325.85542 1033.8084,326.74547 L 1037.2799,329.1488 C 1040.5732,331.46319 1042.8431,333.24344 1044.0893,334.48954 C 1045.3354,335.64677 1046.8486,337.51603 1048.6289,340.09732 M 997.09078,376.94844 L 1010.4426,376.94844 C 1016.0504,376.94847 1020.9015,375.30174 1024.9962,372.00826 C 1029.1797,368.71483 1031.2715,364.48675 1031.2715,359.32399 C 1031.2715,354.33935 1029.4022,350.15577 1025.6638,346.77325 C 1022.0142,343.39084 1017.6081,341.6996 1012.4454,341.69954 L 997.09078,341.69954 L 997.09078,376.94844 M 996.82374,318.20028 L 1010.7097,318.20028 C 1014.3591,318.20036 1017.43,316.82067 1019.9224,314.06121 C 1022.5038,311.2129 1023.7944,307.87494 1023.7945,304.04731 C 1023.7944,300.48692 1022.7263,297.37149 1020.59,294.70102 C 1018.5427,292.03075 1015.8723,290.69557 1012.5789,290.69546 L 996.82374,290.69546 L 996.82374,318.20028" />
      <path
         style="font-size:160.22225952px;font-style:normal;font-variant:normal;font-weight:bold;font-stretch:normal;text-align:start;text-anchor:start;fill:#ff6600;fill-opacity:1;stroke:none;stroke-width:1px;stroke-linecap:butt;stroke-linejoin:miter;stroke-opacity:1;font-family:Brandish;-inkscape-font-specification:Brandish Bold"
         d="M 1086.2831,401.24882 L 1061.3152,401.1153 L 1061.3152,342.90121 C 1061.3152,334.00004 1062.9174,326.30048 1066.1218,319.8025 C 1069.4153,313.30469 1074.6225,307.65241 1081.7435,302.84565 C 1086.1051,299.90834 1090.1997,297.81655 1094.0272,296.57028 C 1097.8547,295.2352 1102.0383,294.5676 1106.578,294.5675 C 1107.7351,294.5676 1109.1148,294.65662 1110.717,294.83453 C 1112.3192,294.92365 1114.144,295.14618 1116.1913,295.50213 L 1116.1913,319.13491 C 1113.9659,318.51191 1111.6516,318.20036 1109.2483,318.20028 C 1104.6196,318.20036 1100.169,319.75808 1095.8965,322.87343 C 1092.781,325.09881 1090.3777,327.63566 1088.6865,330.48399 C 1087.0842,333.33245 1086.2831,336.6259 1086.2831,340.36436 L 1086.2831,401.24882"
         id="path2457" />
      <path
         style="font-size:160.22225952px;font-style:normal;font-variant:normal;font-weight:bold;font-stretch:normal;text-align:start;text-anchor:start;fill:#55d400;fill-opacity:1;stroke:none;stroke-width:1px;stroke-linecap:butt;stroke-linejoin:miter;stroke-opacity:1;font-family:Brandish;-inkscape-font-specification:Brandish Bold"
         d="M 1124.4881,302.31157 L 1147.1863,302.31157 L 1147.1863,400.98178 L 1124.4881,400.98178 L 1124.4881,302.31157"
         id="path3263" />
      <path
         style="font-size:160.22225952px;font-style:normal;font-variant:normal;font-weight:bold;font-stretch:normal;text-align:start;text-anchor:start;fill:#55d400;fill-opacity:1;stroke:none;stroke-width:1px;stroke-linecap:butt;stroke-linejoin:miter;stroke-opacity:1;font-family:Brandish;-inkscape-font-specification:Brandish Bold"
         d="M 1136.1042,295.76916 C 1131.8316,295.76927 1128.4937,294.38958 1126.0903,291.63009 C 1123.687,288.87082 1122.4853,285.62187 1122.4853,281.88323 C 1122.4853,278.23385 1123.6425,275.11842 1125.9568,272.53694 C 1128.3602,269.95571 1131.7426,268.66503 1136.1042,268.6649 C 1140.0208,268.66503 1143.1807,270.08923 1145.5841,272.93749 C 1147.7203,275.51898 1148.7885,278.63441 1148.7885,282.28379 C 1148.7885,285.8444 1147.6313,289.00434 1145.317,291.76361 C 1143.0917,294.43408 1140.0208,295.76927 1136.1042,295.76916"
         id="path2455" />
      <path
         style="font-size:160.22225952px;font-style:normal;font-variant:normal;font-weight:bold;font-stretch:normal;text-align:start;text-anchor:start;fill:#5f8dd3;fill-opacity:1;stroke:none;stroke-width:1px;stroke-linecap:butt;stroke-linejoin:miter;stroke-opacity:1;font-family:Brandish;-inkscape-font-specification:Brandish Bold"
         d="M 1159.1423,302.31157 L 1181.8405,302.31157 L 1181.8405,400.98178 L 1159.1423,400.98178 L 1159.1423,302.31157"
         id="path3265" />
      <path
         style="font-size:160.22225952px;font-style:normal;font-variant:normal;font-weight:bold;font-stretch:normal;text-align:start;text-anchor:start;fill:#5f8dd3;fill-opacity:1;stroke:none;stroke-width:1px;stroke-linecap:butt;stroke-linejoin:miter;stroke-opacity:1;font-family:Brandish;-inkscape-font-specification:Brandish Bold"
         d="M 1170.7584,295.76916 C 1166.4858,295.76927 1163.1479,294.38958 1160.7446,291.63009 C 1158.3412,288.87082 1157.1395,285.62187 1157.1396,281.88323 C 1157.1395,278.23385 1158.2967,275.11842 1160.611,272.53694 C 1163.0144,269.95571 1166.3968,268.66503 1170.7584,268.6649 C 1174.675,268.66503 1177.8349,270.08923 1180.2383,272.93749 C 1182.3745,275.51898 1183.4427,278.63441 1183.4427,282.28379 C 1183.4427,285.8444 1182.2855,289.00434 1179.9712,291.76361 C 1177.7459,294.43408 1174.675,295.76927 1170.7584,295.76916"
         id="path2451" />
      <path
         style="font-size:160.22225952px;font-style:normal;font-variant:normal;font-weight:bold;font-stretch:normal;text-align:start;text-anchor:start;fill:#ffcc00;fill-opacity:1;stroke:none;stroke-width:1px;stroke-linecap:butt;stroke-linejoin:miter;stroke-opacity:1;font-family:Brandish;-inkscape-font-specification:Brandish Bold"
         d="M 1257.3514,375.2127 L 1257.3514,399.11252 C 1253.0787,400.18067 1248.7171,400.71474 1244.2666,400.71474 C 1229.5795,400.71474 1217.0733,395.50753 1206.7478,385.09307 C 1196.4224,374.67865 1191.2597,362.08342 1191.2597,347.30732 C 1191.2597,332.79838 1196.4224,320.51468 1206.7478,310.4562 C 1217.1623,300.39791 1229.713,295.36871 1244.4001,295.36861 C 1248.3166,295.36871 1252.4556,295.94729 1256.8173,297.10435 L 1256.8173,320.4701 C 1253.1677,318.77894 1249.1622,317.93333 1244.8006,317.93324 C 1236.7005,317.93333 1229.624,320.60369 1223.5712,325.94436 C 1217.1623,331.64122 1213.9578,338.89572 1213.9579,347.70788 C 1213.9578,356.69817 1217.1623,364.08619 1223.5712,369.87196 C 1229.535,375.30174 1236.6114,378.01661 1244.8006,378.01659 C 1249.2512,378.01661 1253.4348,377.08198 1257.3514,375.2127"
         id="path2447" />
      <path
         style="font-size:160.22225952px;font-style:normal;font-variant:normal;font-weight:bold;font-stretch:normal;text-align:start;text-anchor:start;fill:#ec327d;fill-opacity:1;stroke:none;stroke-width:1px;stroke-linecap:butt;stroke-linejoin:miter;stroke-opacity:1;font-family:Brandish;-inkscape-font-specification:Brandish Bold"
         d="M 1265.0265,401.51586 L 1265.0265,268.53138 L 1286.9236,268.53138 L 1286.9236,347.8414 L 1288.7928,347.8414 L 1314.4284,304.04731 L 1340.865,304.04731 L 1313.0932,351.57992 L 1340.598,400.98178 L 1315.2295,400.98178 L 1288.7928,356.65362 L 1287.1906,356.65362 L 1287.1906,401.51586 L 1265.0265,401.51586"
         id="path2445" />
      <path
         style="font-size:160.22225952px;font-style:normal;font-variant:normal;font-weight:bold;font-stretch:normal;text-align:start;text-anchor:start;fill:#8d5fd3;fill-opacity:1;stroke:none;stroke-width:1px;stroke-linecap:butt;stroke-linejoin:miter;stroke-opacity:1;font-family:Brandish;-inkscape-font-specification:Brandish Bold"
         d="M 1346.0367,401.51586 L 1346.0367,378.28363 C 1349.4192,377.66056 1352.2675,376.68143 1354.5819,375.34622 C 1356.9852,373.92205 1359.344,371.91927 1361.6584,369.33788 C 1365.3078,365.42138 1367.2661,360.65922 1367.5332,355.0514 C 1367.8002,349.35466 1368.0227,344.5925 1368.2008,340.76492 C 1368.8238,334.53412 1369.4914,330.0835 1370.2036,327.41306 C 1371.2717,323.40758 1373.0964,319.44653 1375.6778,315.52991 C 1379.9504,309.12111 1384.6235,304.40346 1389.6973,301.37694 C 1395.127,298.08359 1401.4913,296.43686 1408.7904,296.43676 L 1408.7904,320.20306 C 1403.0936,321.44931 1398.4204,324.38672 1394.771,329.01528 C 1392.8126,331.41869 1391.5665,333.86652 1391.0324,336.3588 C 1390.4983,338.85121 1390.2313,342.01115 1390.2313,345.83862 C 1390.2313,346.90682 1390.2313,347.88596 1390.2313,348.77603 C 1390.2313,349.6662 1390.2313,350.42281 1390.2313,351.04584 C 1390.2313,359.23502 1389.6082,365.64391 1388.3621,370.27251 C 1387.1159,374.90118 1384.4455,379.75235 1380.351,384.82604 C 1375.6333,390.70086 1370.6041,394.97345 1365.2634,397.64382 C 1359.9226,400.22518 1353.5137,401.51585 1346.0367,401.51586"
         id="text2421" />
    </g>
    <rect
       ry="12.857142"
       rx="12.857142"
       y="515.96606"
       x="1299.8673"
       height="25.714285"
       width="165.71428"
       id="rect2439"
       style="opacity:1;fill:#ffffff;fill-opacity:1;fill-rule:evenodd;stroke:none;stroke-width:1px;stroke-linecap:butt;stroke-linejoin:miter;marker:none;marker-start:none;marker-mid:none;marker-end:none;stroke-miterlimit:4;stroke-dasharray:none;stroke-dashoffset:0;stroke-opacity:1;visibility:visible;display:inline;overflow:visible;enable-background:accumulate" />
    <g
       id="g7110"
       transform="matrix(0.7245983,0,0,0.7245983,472.00281,382.48751)"
       inkscape:transform-center-x="15.368268"
       inkscape:transform-center-y="14.559395">
      <g
         transform="translate(268,-20)"
         id="g3256"
         style="opacity:0.71739131">
        <path
           transform="translate(-18.928571,30)"
           d="M 1158.9286,402.71933 A 12.5,12.5 0 1 1 1133.9286,402.71933 A 12.5,12.5 0 1 1 1158.9286,402.71933 z"
           sodipodi:ry="12.5"
           sodipodi:rx="12.5"
           sodipodi:cy="402.71933"
           sodipodi:cx="1146.4286"
           id="path3250"
           style="opacity:1;fill:#ffffff;fill-opacity:0.66509429;fill-rule:nonzero;stroke:none;stroke-width:1;stroke-linecap:round;stroke-linejoin:miter;marker:none;marker-start:none;marker-mid:none;marker-end:none;stroke-miterlimit:7;stroke-dasharray:none;stroke-dashoffset:0;stroke-opacity:1;visibility:visible;display:inline;overflow:visible;enable-background:accumulate"
           sodipodi:type="arc" />
        <path
           transform="translate(-38.928571,50)"
           d="M 1158.9286,402.71933 A 12.5,12.5 0 1 1 1133.9286,402.71933 A 12.5,12.5 0 1 1 1158.9286,402.71933 z"
           sodipodi:ry="12.5"
           sodipodi:rx="12.5"
           sodipodi:cy="402.71933"
           sodipodi:cx="1146.4286"
           id="path3252"
           style="opacity:1;fill:#ffffff;fill-opacity:0.46226418;fill-rule:nonzero;stroke:none;stroke-width:1;stroke-linecap:round;stroke-linejoin:miter;marker:none;marker-start:none;marker-mid:none;marker-end:none;stroke-miterlimit:7;stroke-dasharray:none;stroke-dashoffset:0;stroke-opacity:1;visibility:visible;display:inline;overflow:visible;enable-background:accumulate"
           sodipodi:type="arc" />
        <path
           transform="translate(-58.928571,70)"
           d="M 1158.9286,402.71933 A 12.5,12.5 0 1 1 1133.9286,402.71933 A 12.5,12.5 0 1 1 1158.9286,402.71933 z"
           sodipodi:ry="12.5"
           sodipodi:rx="12.5"
           sodipodi:cy="402.71933"
           sodipodi:cx="1146.4286"
           id="path3254"
           style="opacity:1;fill:#ffffff;fill-opacity:0.31132076;fill-rule:nonzero;stroke:none;stroke-width:1;stroke-linecap:round;stroke-linejoin:miter;marker:none;marker-start:none;marker-mid:none;marker-end:none;stroke-miterlimit:7;stroke-dasharray:none;stroke-dashoffset:0;stroke-opacity:1;visibility:visible;display:inline;overflow:visible;enable-background:accumulate"
           sodipodi:type="arc" />
      </g>
      <path
         sodipodi:type="arc"
         style="opacity:1;fill:#ffffff;fill-opacity:1;fill-rule:nonzero;stroke:none;stroke-width:1;stroke-linecap:round;stroke-linejoin:miter;marker:none;marker-start:none;marker-mid:none;marker-end:none;stroke-miterlimit:7;stroke-dasharray:none;stroke-dashoffset:0;stroke-opacity:1;visibility:visible;display:inline;overflow:visible;enable-background:accumulate"
         id="path3242"
         sodipodi:cx="1146.4286"
         sodipodi:cy="402.71933"
         sodipodi:rx="12.5"
         sodipodi:ry="12.5"
         d="M 1158.9286,402.71933 A 12.5,12.5 0 1 1 1133.9286,402.71933 A 12.5,12.5 0 1 1 1158.9286,402.71933 z"
         transform="translate(269.07143,-10)" />
    </g>
    <rect
       y="235.252"
       x="1784.8661"
       height="366.02728"
       width="652.82397"
       id="rect2428"
       style="opacity:1;fill:#1a1a1a;fill-opacity:1;fill-rule:evenodd;stroke:none;stroke-width:1px;stroke-linecap:butt;stroke-linejoin:miter;marker:none;marker-start:none;marker-mid:none;marker-end:none;stroke-miterlimit:4;stroke-dasharray:none;stroke-dashoffset:0;stroke-opacity:1;visibility:visible;display:inline;overflow:visible;enable-background:accumulate"
       inkscape:export-filename="/home/stephen/Code/bhspitmonkey-code/wii/briicks/icon200.png"
       inkscape:export-xdpi="27.57"
       inkscape:export-ydpi="27.57" />
    <g
       id="g2430"
       transform="matrix(1.0726954,0,0,1,837.47332,-28.939032)">
      <path
         inkscape:tile-y0="577.59049"
         inkscape:tile-x0="834.386"
         inkscape:tile-h="0"
         inkscape:tile-w="727.3098"
         inkscape:tile-cy="577.59049"
         inkscape:tile-cx="1198.0409"
         id="path2432"
         d="M 835.25399,272.61152 L 1539.7066,272.61152"
         style="fill:none;fill-rule:evenodd;stroke:#ffffff;stroke-width:2.89656329;stroke-linecap:butt;stroke-linejoin:miter;stroke-miterlimit:4;stroke-dasharray:none;stroke-opacity:0.08762883" />
      <use
         transform="matrix(0.9058494,0,0,1,111.80196,20)"
         height="1052.3622"
         width="744.09448"
         id="use2434"
         xlink:href="#path7128"
         y="0"
         x="0" />
      <use
         height="1052.3622"
         width="744.09448"
         transform="matrix(0.9529247,0,0,1,55.900982,40)"
         id="use2436"
         xlink:href="#path7128"
         y="0"
         x="0" />
      <use
         height="1052.3622"
         width="744.09448"
         transform="translate(0,60.000003)"
         id="use2438"
         xlink:href="#path7128"
         y="0"
         x="0" />
      <use
         height="1052.3622"
         width="744.09448"
         transform="translate(0,80.000003)"
         id="use2440"
         xlink:href="#path7128"
         y="0"
         x="0" />
      <use
         height="1052.3622"
         width="744.09448"
         transform="translate(0,100)"
         id="use2442"
         xlink:href="#path7128"
         y="0"
         x="0" />
      <use
         height="1052.3622"
         width="744.09448"
         transform="translate(0,120)"
         id="use2444"
         xlink:href="#path7128"
         y="0"
         x="0" />
      <use
         height="1052.3622"
         width="744.09448"
         transform="translate(0,140)"
         id="use2446"
         xlink:href="#path7128"
         y="0"
         x="0" />
      <use
         height="1052.3622"
         width="744.09448"
         transform="translate(0,160)"
         id="use2448"
         xlink:href="#path7128"
         y="0"
         x="0" />
      <use
         height="1052.3622"
         width="744.09448"
         transform="translate(0,180)"
         id="use2450"
         xlink:href="#path7128"
         y="0"
         x="0" />
      <use
         height="1052.3622"
         width="744.09448"
         transform="translate(0,200)"
         id="use2452"
         xlink:href="#path7128"
         y="0"
         x="0" />
      <use
         height="1052.3622"
         width="744.09448"
         transform="translate(0,220)"
         id="use2454"
         xlink:href="#path7128"
         y="0"
         x="0" />
      <use
         height="1052.3622"
         width="744.09448"
         transform="translate(0,240)"
         id="use2456"
         xlink:href="#path7128"
         y="0"
         x="0" />
      <use
         height="1052.3622"
         width="744.09448"
         transform="matrix(0.9435096,0,0,1,67.081178,260)"
         id="use2458"
         xlink:href="#path7128"
         y="0"
         x="0" />
      <use
         height="1052.3622"
         width="744.09448"
         transform="matrix(0.8983174,0,0,1,120.74612,280)"
         id="use2462"
         xlink:href="#path7128"
         y="0"
         x="0" />
      <use
         height="1052.3622"
         width="744.09448"
         transform="matrix(0.8983174,0,0,1,120.74612,300)"
         id="use2498"
         xlink:href="#path7128"
         y="0"
         x="0" />
      <use
         height="1052.3622"
         width="744.09448"
         transform="matrix(0.8983174,0,0,1,120.74612,320)"
         id="use2500"
         xlink:href="#path7128"
         y="0"
         x="0" />
      <use
         height="1052.3622"
         width="744.09448"
         transform="matrix(0.8983174,0,0,1,120.74612,340)"
         id="use2502"
         xlink:href="#path7128"
         y="0"
         x="0" />
    </g>
    <g
       id="g2464"
       transform="translate(950.42086,358.20383)">
      <path
         id="path2466"
         style="font-size:160.22225952px;font-style:normal;font-variant:normal;font-weight:bold;font-stretch:normal;text-align:start;text-anchor:start;fill:#ff2a2a;fill-opacity:1;stroke:none;stroke-width:1px;stroke-linecap:butt;stroke-linejoin:miter;stroke-opacity:1;font-family:Brandish;-inkscape-font-specification:Brandish Bold"
         d="M 1048.6289,340.09732 C 1051.0322,343.56886 1052.7679,346.86232 1053.8362,349.9777 C 1054.9042,353.00416 1055.4383,356.43114 1055.4384,360.25862 C 1055.4383,371.3852 1051.8333,381.04303 1044.6234,389.23215 C 1037.4133,397.42129 1028.4676,401.51585 1017.7862,401.51586 L 972.92392,401.51586 L 972.92392,267.32971 L 1018.5873,267.32971 C 1027.1324,267.32985 1034.3869,270.44528 1040.3508,276.67601 C 1046.4035,282.81798 1049.43,290.25051 1049.4301,298.97361 C 1049.43,302.44519 1049.1629,305.24908 1048.6289,307.38528 C 1048.0948,309.52167 1046.9821,312.05852 1045.291,314.99584 C 1043.9557,317.39925 1041.7304,319.8916 1038.615,322.47287 C 1036.3007,324.43122 1034.6984,325.85542 1033.8084,326.74547 L 1037.2799,329.1488 C 1040.5732,331.46319 1042.8431,333.24344 1044.0893,334.48954 C 1045.3354,335.64677 1046.8486,337.51603 1048.6289,340.09732 M 997.09078,376.94844 L 1010.4426,376.94844 C 1016.0504,376.94847 1020.9015,375.30174 1024.9962,372.00826 C 1029.1797,368.71483 1031.2715,364.48675 1031.2715,359.32399 C 1031.2715,354.33935 1029.4022,350.15577 1025.6638,346.77325 C 1022.0142,343.39084 1017.6081,341.6996 1012.4454,341.69954 L 997.09078,341.69954 L 997.09078,376.94844 M 996.82374,318.20028 L 1010.7097,318.20028 C 1014.3591,318.20036 1017.43,316.82067 1019.9224,314.06121 C 1022.5038,311.2129 1023.7944,307.87494 1023.7945,304.04731 C 1023.7944,300.48692 1022.7263,297.37149 1020.59,294.70102 C 1018.5427,292.03075 1015.8723,290.69557 1012.5789,290.69546 L 996.82374,290.69546 L 996.82374,318.20028" />
      <path
         style="font-size:160.22225952px;font-style:normal;font-variant:normal;font-weight:bold;font-stretch:normal;text-align:start;text-anchor:start;fill:#ff6600;fill-opacity:1;stroke:none;stroke-width:1px;stroke-linecap:butt;stroke-linejoin:miter;stroke-opacity:1;font-family:Brandish;-inkscape-font-specification:Brandish Bold"
         d="M 1086.2831,401.24882 L 1061.3152,401.1153 L 1061.3152,342.90121 C 1061.3152,334.00004 1062.9174,326.30048 1066.1218,319.8025 C 1069.4153,313.30469 1074.6225,307.65241 1081.7435,302.84565 C 1086.1051,299.90834 1090.1997,297.81655 1094.0272,296.57028 C 1097.8547,295.2352 1102.0383,294.5676 1106.578,294.5675 C 1107.7351,294.5676 1109.1148,294.65662 1110.717,294.83453 C 1112.3192,294.92365 1114.144,295.14618 1116.1913,295.50213 L 1116.1913,319.13491 C 1113.9659,318.51191 1111.6516,318.20036 1109.2483,318.20028 C 1104.6196,318.20036 1100.169,319.75808 1095.8965,322.87343 C 1092.781,325.09881 1090.3777,327.63566 1088.6865,330.48399 C 1087.0842,333.33245 1086.2831,336.6259 1086.2831,340.36436 L 1086.2831,401.24882"
         id="path2468" />
      <path
         style="font-size:160.22225952px;font-style:normal;font-variant:normal;font-weight:bold;font-stretch:normal;text-align:start;text-anchor:start;fill:#55d400;fill-opacity:1;stroke:none;stroke-width:1px;stroke-linecap:butt;stroke-linejoin:miter;stroke-opacity:1;font-family:Brandish;-inkscape-font-specification:Brandish Bold"
         d="M 1124.4881,302.31157 L 1147.1863,302.31157 L 1147.1863,400.98178 L 1124.4881,400.98178 L 1124.4881,302.31157"
         id="path2470" />
      <path
         style="font-size:160.22225952px;font-style:normal;font-variant:normal;font-weight:bold;font-stretch:normal;text-align:start;text-anchor:start;fill:#55d400;fill-opacity:1;stroke:none;stroke-width:1px;stroke-linecap:butt;stroke-linejoin:miter;stroke-opacity:1;font-family:Brandish;-inkscape-font-specification:Brandish Bold"
         d="M 1136.1042,295.76916 C 1131.8316,295.76927 1128.4937,294.38958 1126.0903,291.63009 C 1123.687,288.87082 1122.4853,285.62187 1122.4853,281.88323 C 1122.4853,278.23385 1123.6425,275.11842 1125.9568,272.53694 C 1128.3602,269.95571 1131.7426,268.66503 1136.1042,268.6649 C 1140.0208,268.66503 1143.1807,270.08923 1145.5841,272.93749 C 1147.7203,275.51898 1148.7885,278.63441 1148.7885,282.28379 C 1148.7885,285.8444 1147.6313,289.00434 1145.317,291.76361 C 1143.0917,294.43408 1140.0208,295.76927 1136.1042,295.76916"
         id="path2472" />
      <path
         style="font-size:160.22225952px;font-style:normal;font-variant:normal;font-weight:bold;font-stretch:normal;text-align:start;text-anchor:start;fill:#5f8dd3;fill-opacity:1;stroke:none;stroke-width:1px;stroke-linecap:butt;stroke-linejoin:miter;stroke-opacity:1;font-family:Brandish;-inkscape-font-specification:Brandish Bold"
         d="M 1159.1423,302.31157 L 1181.8405,302.31157 L 1181.8405,400.98178 L 1159.1423,400.98178 L 1159.1423,302.31157"
         id="path2474" />
      <path
         style="font-size:160.22225952px;font-style:normal;font-variant:normal;font-weight:bold;font-stretch:normal;text-align:start;text-anchor:start;fill:#5f8dd3;fill-opacity:1;stroke:none;stroke-width:1px;stroke-linecap:butt;stroke-linejoin:miter;stroke-opacity:1;font-family:Brandish;-inkscape-font-specification:Brandish Bold"
         d="M 1170.7584,295.76916 C 1166.4858,295.76927 1163.1479,294.38958 1160.7446,291.63009 C 1158.3412,288.87082 1157.1395,285.62187 1157.1396,281.88323 C 1157.1395,278.23385 1158.2967,275.11842 1160.611,272.53694 C 1163.0144,269.95571 1166.3968,268.66503 1170.7584,268.6649 C 1174.675,268.66503 1177.8349,270.08923 1180.2383,272.93749 C 1182.3745,275.51898 1183.4427,278.63441 1183.4427,282.28379 C 1183.4427,285.8444 1182.2855,289.00434 1179.9712,291.76361 C 1177.7459,294.43408 1174.675,295.76927 1170.7584,295.76916"
         id="path2476" />
      <path
         style="font-size:160.22225952px;font-style:normal;font-variant:normal;font-weight:bold;font-stretch:normal;text-align:start;text-anchor:start;fill:#ffcc00;fill-opacity:1;stroke:none;stroke-width:1px;stroke-linecap:butt;stroke-linejoin:miter;stroke-opacity:1;font-family:Brandish;-inkscape-font-specification:Brandish Bold"
         d="M 1257.3514,375.2127 L 1257.3514,399.11252 C 1253.0787,400.18067 1248.7171,400.71474 1244.2666,400.71474 C 1229.5795,400.71474 1217.0733,395.50753 1206.7478,385.09307 C 1196.4224,374.67865 1191.2597,362.08342 1191.2597,347.30732 C 1191.2597,332.79838 1196.4224,320.51468 1206.7478,310.4562 C 1217.1623,300.39791 1229.713,295.36871 1244.4001,295.36861 C 1248.3166,295.36871 1252.4556,295.94729 1256.8173,297.10435 L 1256.8173,320.4701 C 1253.1677,318.77894 1249.1622,317.93333 1244.8006,317.93324 C 1236.7005,317.93333 1229.624,320.60369 1223.5712,325.94436 C 1217.1623,331.64122 1213.9578,338.89572 1213.9579,347.70788 C 1213.9578,356.69817 1217.1623,364.08619 1223.5712,369.87196 C 1229.535,375.30174 1236.6114,378.01661 1244.8006,378.01659 C 1249.2512,378.01661 1253.4348,377.08198 1257.3514,375.2127"
         id="path2478" />
      <path
         style="font-size:160.22225952px;font-style:normal;font-variant:normal;font-weight:bold;font-stretch:normal;text-align:start;text-anchor:start;fill:#ec327d;fill-opacity:1;stroke:none;stroke-width:1px;stroke-linecap:butt;stroke-linejoin:miter;stroke-opacity:1;font-family:Brandish;-inkscape-font-specification:Brandish Bold"
         d="M 1265.0265,401.51586 L 1265.0265,268.53138 L 1286.9236,268.53138 L 1286.9236,347.8414 L 1288.7928,347.8414 L 1314.4284,304.04731 L 1340.865,304.04731 L 1313.0932,351.57992 L 1340.598,400.98178 L 1315.2295,400.98178 L 1288.7928,356.65362 L 1287.1906,356.65362 L 1287.1906,401.51586 L 1265.0265,401.51586"
         id="path2480" />
      <path
         style="font-size:160.22225952px;font-style:normal;font-variant:normal;font-weight:bold;font-stretch:normal;text-align:start;text-anchor:start;fill:#8d5fd3;fill-opacity:1;stroke:none;stroke-width:1px;stroke-linecap:butt;stroke-linejoin:miter;stroke-opacity:1;font-family:Brandish;-inkscape-font-specification:Brandish Bold"
         d="M 1346.0367,401.51586 L 1346.0367,378.28363 C 1349.4192,377.66056 1352.2675,376.68143 1354.5819,375.34622 C 1356.9852,373.92205 1359.344,371.91927 1361.6584,369.33788 C 1365.3078,365.42138 1367.2661,360.65922 1367.5332,355.0514 C 1367.8002,349.35466 1368.0227,344.5925 1368.2008,340.76492 C 1368.8238,334.53412 1369.4914,330.0835 1370.2036,327.41306 C 1371.2717,323.40758 1373.0964,319.44653 1375.6778,315.52991 C 1379.9504,309.12111 1384.6235,304.40346 1389.6973,301.37694 C 1395.127,298.08359 1401.4913,296.43686 1408.7904,296.43676 L 1408.7904,320.20306 C 1403.0936,321.44931 1398.4204,324.38672 1394.771,329.01528 C 1392.8126,331.41869 1391.5665,333.86652 1391.0324,336.3588 C 1390.4983,338.85121 1390.2313,342.01115 1390.2313,345.83862 C 1390.2313,346.90682 1390.2313,347.88596 1390.2313,348.77603 C 1390.2313,349.6662 1390.2313,350.42281 1390.2313,351.04584 C 1390.2313,359.23502 1389.6082,365.64391 1388.3621,370.27251 C 1387.1159,374.90118 1384.4455,379.75235 1380.351,384.82604 C 1375.6333,390.70086 1370.6041,394.97345 1365.2634,397.64382 C 1359.9226,400.22518 1353.5137,401.51585 1346.0367,401.51586"
         id="path2482" />
    </g>
    <rect
       ry="12.857142"
       rx="12.857142"
       y="525.88416"
       x="2200.0024"
       height="25.714285"
       width="165.71428"
       id="rect2484"
       style="fill:#ffffff;fill-opacity:1;fill-rule:evenodd;stroke:none;stroke-width:1px;stroke-linecap:butt;stroke-linejoin:miter;marker:none;marker-start:none;marker-mid:none;marker-end:none;stroke-miterlimit:4;stroke-dasharray:none;stroke-dashoffset:0;stroke-opacity:1;visibility:visible;display:inline;overflow:visible;enable-background:accumulate" />
    <g
       id="g2486"
       transform="matrix(0.7983194,0,0,0.7983194,1230.7066,134.89753)">
      <g
         transform="translate(268,-20)"
         id="g2488"
         style="opacity:0.71739131">
        <path
           transform="translate(-18.928571,30)"
           d="M 1158.9286,402.71933 A 12.5,12.5 0 1 1 1133.9286,402.71933 A 12.5,12.5 0 1 1 1158.9286,402.71933 z"
           sodipodi:ry="12.5"
           sodipodi:rx="12.5"
           sodipodi:cy="402.71933"
           sodipodi:cx="1146.4286"
           id="path2490"
           style="opacity:1;fill:#ffffff;fill-opacity:0.66509429;fill-rule:nonzero;stroke:none;stroke-width:1;stroke-linecap:round;stroke-linejoin:miter;marker:none;marker-start:none;marker-mid:none;marker-end:none;stroke-miterlimit:7;stroke-dasharray:none;stroke-dashoffset:0;stroke-opacity:1;visibility:visible;display:inline;overflow:visible;enable-background:accumulate"
           sodipodi:type="arc" />
        <path
           transform="translate(-38.928571,50)"
           d="M 1158.9286,402.71933 A 12.5,12.5 0 1 1 1133.9286,402.71933 A 12.5,12.5 0 1 1 1158.9286,402.71933 z"
           sodipodi:ry="12.5"
           sodipodi:rx="12.5"
           sodipodi:cy="402.71933"
           sodipodi:cx="1146.4286"
           id="path2492"
           style="opacity:1;fill:#ffffff;fill-opacity:0.46226418;fill-rule:nonzero;stroke:none;stroke-width:1;stroke-linecap:round;stroke-linejoin:miter;marker:none;marker-start:none;marker-mid:none;marker-end:none;stroke-miterlimit:7;stroke-dasharray:none;stroke-dashoffset:0;stroke-opacity:1;visibility:visible;display:inline;overflow:visible;enable-background:accumulate"
           sodipodi:type="arc" />
        <path
           transform="translate(-58.928571,70)"
           d="M 1158.9286,402.71933 A 12.5,12.5 0 1 1 1133.9286,402.71933 A 12.5,12.5 0 1 1 1158.9286,402.71933 z"
           sodipodi:ry="12.5"
           sodipodi:rx="12.5"
           sodipodi:cy="402.71933"
           sodipodi:cx="1146.4286"
           id="path2494"
           style="opacity:1;fill:#ffffff;fill-opacity:0.31132076;fill-rule:nonzero;stroke:none;stroke-width:1;stroke-linecap:round;stroke-linejoin:miter;marker:none;marker-start:none;marker-mid:none;marker-end:none;stroke-miterlimit:7;stroke-dasharray:none;stroke-dashoffset:0;stroke-opacity:1;visibility:visible;display:inline;overflow:visible;enable-background:accumulate"
           sodipodi:type="arc" />
        <path
           transform="translate(-78.970672,90.042104)"
           d="M 1158.9286,402.71933 A 12.5,12.5 0 1 1 1133.9286,402.71933 A 12.5,12.5 0 1 1 1158.9286,402.71933 z"
           sodipodi:ry="12.5"
           sodipodi:rx="12.5"
           sodipodi:cy="402.71933"
           sodipodi:cx="1146.4286"
           id="path2563"
           style="opacity:1;fill:#ffffff;fill-opacity:0.17010309;fill-rule:nonzero;stroke:none;stroke-width:1;stroke-linecap:round;stroke-linejoin:miter;marker:none;marker-start:none;marker-mid:none;marker-end:none;stroke-miterlimit:7;stroke-dasharray:none;stroke-dashoffset:0;stroke-opacity:1;visibility:visible;display:inline;overflow:visible;enable-background:accumulate"
           sodipodi:type="arc" />
      </g>
      <path
         sodipodi:type="arc"
         style="opacity:1;fill:#ffffff;fill-opacity:1;fill-rule:nonzero;stroke:none;stroke-width:1;stroke-linecap:round;stroke-linejoin:miter;marker:none;marker-start:none;marker-mid:none;marker-end:none;stroke-miterlimit:7;stroke-dasharray:none;stroke-dashoffset:0;stroke-opacity:1;visibility:visible;display:inline;overflow:visible;enable-background:accumulate"
         id="path2496"
         sodipodi:cx="1146.4286"
         sodipodi:cy="402.71933"
         sodipodi:rx="12.5"
         sodipodi:ry="12.5"
         d="M 1158.9286,402.71933 A 12.5,12.5 0 1 1 1133.9286,402.71933 A 12.5,12.5 0 1 1 1158.9286,402.71933 z"
         transform="translate(269.07143,-10)" />
    </g>
    <g
       id="g3335">
      <path
         d="M 1911.2804,406.5797 C 1913.2464,409.4197 1914.6664,412.11401 1915.5403,414.66265 C 1916.4141,417.13854 1916.851,419.94209 1916.8511,423.07328 C 1916.851,432.17573 1913.9018,440.07662 1908.0035,446.77599 C 1902.1051,453.47537 1894.7867,456.82506 1886.0485,456.82506 L 1849.3475,456.82506 L 1849.3475,347.04986 L 1886.7038,347.04986 C 1893.6944,347.04997 1899.6292,349.59864 1904.5082,354.69589 C 1909.4599,359.72053 1911.9357,365.80094 1911.9358,372.93714 C 1911.9357,375.77718 1911.7172,378.07099 1911.2804,379.81857 C 1910.8434,381.56631 1909.9332,383.64166 1908.5496,386.04463 C 1907.4573,388.01082 1905.6368,390.04976 1903.0882,392.16146 C 1901.1948,393.76355 1899.8841,394.92866 1899.1559,395.65679 L 1901.9959,397.62291 C 1904.6901,399.51627 1906.5471,400.97266 1907.5665,401.99207 C 1908.5859,402.93878 1909.8239,404.46798 1911.2804,406.5797 M 1869.118,436.72691 L 1880.0409,436.72691 C 1884.6285,436.72693 1888.5971,435.37978 1891.9468,432.68544 C 1895.3693,429.99115 1897.0806,426.53223 1897.0806,422.30868 C 1897.0806,418.23083 1895.5514,414.80832 1892.493,412.04115 C 1889.5074,409.27405 1885.9028,407.89049 1881.6793,407.89044 L 1869.118,407.89044 L 1869.118,436.72691 M 1868.8995,388.66613 L 1880.2593,388.66613 C 1883.2448,388.6662 1885.7571,387.5375 1887.7961,385.28003 C 1889.9078,382.94988 1890.9637,380.21916 1890.9638,377.08785 C 1890.9637,374.17516 1890.0899,371.62648 1888.3423,369.44181 C 1886.6674,367.25732 1884.4828,366.16503 1881.7885,366.16494 L 1868.8995,366.16494 L 1868.8995,388.66613"
         style="font-size:160.98127747px;font-style:normal;font-variant:normal;font-weight:bold;font-stretch:normal;text-align:start;text-anchor:start;fill:#ff2a2a;fill-opacity:1;stroke:none;stroke-width:1px;stroke-linecap:butt;stroke-linejoin:miter;stroke-opacity:1;font-family:Brandish;-inkscape-font-specification:Brandish Bold"
         id="path2501" />
      <path
         id="path2495"
         d="M 1940.1794,456.6066 L 1919.7536,456.49737 L 1919.7536,408.87351 C 1919.7536,401.59162 1921.0643,395.29275 1923.6858,389.97688 C 1926.3801,384.66113 1930.64,380.03711 1936.4656,376.10479 C 1940.0337,373.70183 1943.3835,371.99058 1946.5147,370.97102 C 1949.6459,369.87882 1953.0684,369.33267 1956.7822,369.33259 C 1957.7289,369.33267 1958.8575,369.40549 1960.1684,369.55104 C 1961.479,369.62395 1962.9718,369.806 1964.6468,370.09719 L 1964.6468,389.43073 C 1962.8262,388.92106 1960.9329,388.6662 1958.9668,388.66613 C 1955.1802,388.6662 1951.5392,389.94053 1948.0439,392.48914 C 1945.4952,394.30969 1943.529,396.38504 1942.1455,398.7152 C 1940.8348,401.04548 1940.1794,403.73979 1940.1794,406.79815 L 1940.1794,456.6066"
         style="font-size:160.98127747px;font-style:normal;font-variant:normal;font-weight:bold;font-stretch:normal;text-align:start;text-anchor:start;fill:#ff6600;fill-opacity:1;stroke:none;stroke-width:1px;stroke-linecap:butt;stroke-linejoin:miter;stroke-opacity:1;font-family:Brandish;-inkscape-font-specification:Brandish Bold" />
      <path
         d="M 1969.529,375.66787 L 1988.098,375.66787 L 1988.098,456.38814 L 1969.529,456.38814 L 1969.529,375.66787 M 1979.0319,370.31565 C 1975.5366,370.31573 1972.8059,369.18703 1970.8397,366.92955 C 1968.8736,364.67224 1967.8905,362.01433 1967.8905,358.95583 C 1967.8905,355.97033 1968.8372,353.42166 1970.7306,351.30979 C 1972.6967,349.19814 1975.4638,348.14226 1979.0319,348.14215 C 1982.236,348.14226 1984.821,349.30736 1986.7872,351.63748 C 1988.5349,353.74934 1989.4087,356.29802 1989.4087,359.28351 C 1989.4087,362.19638 1988.462,364.78147 1986.5688,367.03877 C 1984.7482,369.22344 1982.236,370.31573 1979.0319,370.31565"
         style="font-size:160.98127747px;font-style:normal;font-variant:normal;font-weight:bold;font-stretch:normal;text-align:start;text-anchor:start;fill:#55d400;fill-opacity:1;stroke:none;stroke-width:1px;stroke-linecap:butt;stroke-linejoin:miter;stroke-opacity:1;font-family:Brandish;-inkscape-font-specification:Brandish Bold"
         id="path2493" />
      <path
         d="M 1995.9738,375.66787 L 2014.5427,375.66787 L 2014.5427,456.38814 L 1995.9738,456.38814 L 1995.9738,375.66787 M 2005.4768,370.31565 C 2001.9814,370.31573 1999.2506,369.18703 1997.2845,366.92955 C 1995.3184,364.67224 1994.3354,362.01433 1994.3354,358.95583 C 1994.3354,355.97033 1995.282,353.42166 1997.1753,351.30979 C 1999.1415,349.19814 2001.9086,348.14226 2005.4768,348.14215 C 2008.6807,348.14226 2011.2658,349.30736 2013.232,351.63748 C 2014.9797,353.74934 2015.8535,356.29802 2015.8535,359.28351 C 2015.8535,362.19638 2014.9068,364.78147 2013.0136,367.03877 C 2011.193,369.22344 2008.6807,370.31573 2005.4768,370.31565"
         style="font-size:160.98127747px;font-style:normal;font-variant:normal;font-weight:bold;font-stretch:normal;text-align:start;text-anchor:start;fill:#5f8dd3;fill-opacity:1;stroke:none;stroke-width:1px;stroke-linecap:butt;stroke-linejoin:miter;stroke-opacity:1;font-family:Brandish;-inkscape-font-specification:Brandish Bold"
         id="path2489" />
      <path
         id="path2485"
         d="M 2074.4116,435.30694 L 2074.4116,454.85894 C 2070.9162,455.73277 2067.3481,456.16969 2063.7072,456.16969 C 2051.692,456.16969 2041.4608,451.90975 2033.0138,443.38988 C 2024.5667,434.87004 2020.3433,424.56611 2020.3433,412.47806 C 2020.3433,400.60856 2024.5667,390.5595 2033.0138,382.33084 C 2041.5336,374.10234 2051.8012,369.98805 2063.8164,369.98796 C 2067.0204,369.98805 2070.4065,370.46137 2073.9747,371.40794 L 2073.9747,390.52302 C 2070.9891,389.13952 2067.7122,388.44774 2064.1441,388.44767 C 2057.5175,388.44774 2051.7284,390.63232 2046.7767,395.00141 C 2041.5336,399.66191 2038.9122,405.59668 2038.9122,412.80575 C 2038.9122,420.16054 2041.5336,426.20455 2046.7767,430.93777 C 2051.6556,435.37978 2057.4447,437.60076 2064.1441,437.60075 C 2067.785,437.60076 2071.2075,436.83616 2074.4116,435.30694"
         style="font-size:160.98127747px;font-style:normal;font-variant:normal;font-weight:bold;font-stretch:normal;text-align:start;text-anchor:start;fill:#ffcc00;fill-opacity:1;stroke:none;stroke-width:1px;stroke-linecap:butt;stroke-linejoin:miter;stroke-opacity:1;font-family:Brandish;-inkscape-font-specification:Brandish Bold" />
      <path
         id="path2483"
         d="M 2082.0753,456.82506 L 2082.0753,348.03292 L 2099.9889,348.03292 L 2099.9889,412.91498 L 2101.5181,412.91498 L 2122.4901,377.08785 L 2144.1174,377.08785 L 2121.3978,415.97339 L 2143.899,456.38814 L 2123.1455,456.38814 L 2101.5181,420.1241 L 2100.2074,420.1241 L 2100.2074,456.82506 L 2082.0753,456.82506"
         style="font-size:160.98127747px;font-style:normal;font-variant:normal;font-weight:bold;font-stretch:normal;text-align:start;text-anchor:start;fill:#8d5fd3;fill-opacity:1;stroke:none;stroke-width:1px;stroke-linecap:butt;stroke-linejoin:miter;stroke-opacity:1;font-family:Brandish;-inkscape-font-specification:Brandish Bold" />
      <path
         d="M 2180.1687,456.49737 C 2166.7699,456.49737 2156.1382,452.09181 2148.2738,443.28065 C 2141.2103,435.34337 2137.6785,425.58558 2137.6785,414.00727 C 2137.6785,402.28341 2141.2831,392.34357 2148.4923,384.18774 C 2156.5751,375.0854 2167.4616,370.53419 2181.1517,370.5341 C 2194.5504,370.53419 2205.1821,374.93976 2213.0466,383.75082 C 2220.11,391.6882 2223.6417,401.44598 2223.6418,413.02421 C 2223.6417,424.74816 2220.0372,434.68799 2212.8281,442.84374 C 2204.7451,451.94617 2193.8586,456.49737 2180.1687,456.49737 M 2182.0255,388.33844 C 2174.0882,388.33851 2167.7893,390.96 2163.1289,396.20293 C 2158.9054,400.93625 2156.7936,406.72539 2156.7936,413.57035 C 2156.7936,420.19696 2158.7962,425.76763 2162.8013,430.2824 C 2167.316,435.30696 2173.4328,437.81922 2181.1517,437.8192 C 2189.089,437.81922 2195.3878,435.19773 2200.0484,429.95471 C 2204.2718,425.22148 2206.3835,419.43235 2206.3836,412.58729 C 2206.3835,405.96078 2204.381,400.3901 2200.376,395.87525 C 2195.8611,390.85078 2189.7444,388.33851 2182.0255,388.33844"
         style="font-size:160.98127747000000909px;font-style:normal;font-variant:normal;font-weight:bold;font-stretch:normal;text-align:start;text-anchor:start;fill:#ff2a2a;fill-opacity:1;stroke:none;stroke-width:1px;stroke-linecap:butt;stroke-linejoin:miter;stroke-opacity:1;font-family:Brandish;-inkscape-font-specification:Brandish Bold"
         id="path2481" />
      <path
         id="path2477"
         d="M 2227.237,371.40794 L 2246.3521,371.40794 L 2246.3521,420.34255 C 2246.3521,425.00303 2248.2818,428.86245 2252.1412,431.92083 C 2256.0006,434.97927 2260.479,436.50847 2265.5764,436.50846 C 2270.6009,436.50847 2274.97,435.0885 2278.6839,432.24853 C 2282.4704,429.33578 2284.3637,425.58558 2284.3638,420.99793 L 2284.3638,371.51717 L 2304.3527,371.51717 L 2304.3527,420.1241 C 2304.3526,430.10037 2300.0199,438.80228 2291.3544,446.22984 C 2283.2715,453.2205 2274.5695,456.71583 2265.2487,456.71583 C 2254.6899,456.71583 2245.6967,453.25691 2238.2691,446.33907 C 2230.9144,439.34843 2227.237,430.79216 2227.237,420.67024 L 2227.237,371.40794"
         style="font-size:160.98127747000000909px;font-style:normal;font-variant:normal;font-weight:bold;font-stretch:normal;text-align:start;text-anchor:start;fill:#ec327d;fill-opacity:1;stroke:none;stroke-width:1px;stroke-linecap:butt;stroke-linejoin:miter;stroke-opacity:1;font-family:Brandish;-inkscape-font-specification:Brandish Bold" />
      <path
         id="text2466"
         d="M 2309.1631,347.37755 L 2327.5136,347.37755 L 2327.5136,369.22336 L 2340.1841,369.22336 L 2340.1841,388.44767 L 2327.5136,388.44767 L 2327.5136,424.71172 C 2327.5136,426.67787 2327.8412,428.38913 2328.4966,429.84548 C 2329.2248,431.30189 2330.3535,432.79469 2331.8827,434.32388 C 2334.7955,437.23667 2338.218,438.69305 2342.1502,438.69304 C 2343.461,438.69305 2344.4804,438.62024 2345.2087,438.47458 L 2345.2087,456.38814 C 2344.6989,456.38814 2344.1163,456.38814 2343.461,456.38814 C 2342.8784,456.46096 2342.4779,456.49737 2342.2595,456.49737 C 2338.9826,456.49737 2335.7785,455.98763 2332.6473,454.96817 C 2328.7879,453.73024 2324.528,451.50925 2319.8675,448.30519 C 2317.0276,446.33908 2314.5881,443.28067 2312.5492,439.12995 C 2310.2917,434.54235 2309.1631,429.88192 2309.1631,425.14864 L 2309.1631,347.37755"
         style="font-size:160.98127747px;font-style:normal;font-variant:normal;font-weight:bold;font-stretch:normal;text-align:start;text-anchor:start;fill:#8d5fd3;fill-opacity:1;stroke:none;stroke-width:1px;stroke-linecap:butt;stroke-linejoin:miter;stroke-opacity:1;font-family:Brandish;-inkscape-font-specification:Brandish Bold" />
    </g>
    <text
       xml:space="preserve"
       style="font-size:160.98127747px;font-style:normal;font-variant:normal;font-weight:bold;font-stretch:normal;text-align:start;text-anchor:start;fill:#000000;fill-opacity:1;stroke:none;stroke-width:1px;stroke-linecap:butt;stroke-linejoin:miter;stroke-opacity:1;font-family:Brandish;-inkscape-font-specification:Brandish Bold"
       x="932.78748"
       y="93.42749"
       id="text2470"><tspan
         sodipodi:role="line"
         id="tspan2472"
         x="932.78748"
         y="93.42749"
         dx="0 -8.0812206 -8.0812206 -8.0812206 -8.0812206 -4.0406103 -16.162439 -6.0609155 -6.0609155">Briickout</tspan></text>
    <g
       id="g3366"
       transform="matrix(0.7983194,0,0,0.7983194,319.73415,132.62633)">
      <g
         transform="translate(268,-20)"
         id="g3368"
         style="opacity:0.71739131">
        <path
           transform="translate(-18.928571,30)"
           d="M 1158.9286,402.71933 A 12.5,12.5 0 1 1 1133.9286,402.71933 A 12.5,12.5 0 1 1 1158.9286,402.71933 z"
           sodipodi:ry="12.5"
           sodipodi:rx="12.5"
           sodipodi:cy="402.71933"
           sodipodi:cx="1146.4286"
           id="path3370"
           style="opacity:1;fill:#ffffff;fill-opacity:0.66509429;fill-rule:nonzero;stroke:none;stroke-width:1;stroke-linecap:round;stroke-linejoin:miter;marker:none;marker-start:none;marker-mid:none;marker-end:none;stroke-miterlimit:7;stroke-dasharray:none;stroke-dashoffset:0;stroke-opacity:1;visibility:visible;display:inline;overflow:visible;enable-background:accumulate"
           sodipodi:type="arc" />
        <path
           transform="translate(-38.928571,50)"
           d="M 1158.9286,402.71933 A 12.5,12.5 0 1 1 1133.9286,402.71933 A 12.5,12.5 0 1 1 1158.9286,402.71933 z"
           sodipodi:ry="12.5"
           sodipodi:rx="12.5"
           sodipodi:cy="402.71933"
           sodipodi:cx="1146.4286"
           id="path3372"
           style="opacity:1;fill:#ffffff;fill-opacity:0.46226418;fill-rule:nonzero;stroke:none;stroke-width:1;stroke-linecap:round;stroke-linejoin:miter;marker:none;marker-start:none;marker-mid:none;marker-end:none;stroke-miterlimit:7;stroke-dasharray:none;stroke-dashoffset:0;stroke-opacity:1;visibility:visible;display:inline;overflow:visible;enable-background:accumulate"
           sodipodi:type="arc" />
        <path
           transform="translate(-58.928571,70)"
           d="M 1158.9286,402.71933 A 12.5,12.5 0 1 1 1133.9286,402.71933 A 12.5,12.5 0 1 1 1158.9286,402.71933 z"
           sodipodi:ry="12.5"
           sodipodi:rx="12.5"
           sodipodi:cy="402.71933"
           sodipodi:cx="1146.4286"
           id="path3374"
           style="opacity:1;fill:#ffffff;fill-opacity:0.31132076;fill-rule:nonzero;stroke:none;stroke-width:1;stroke-linecap:round;stroke-linejoin:miter;marker:none;marker-start:none;marker-mid:none;marker-end:none;stroke-miterlimit:7;stroke-dasharray:none;stroke-dashoffset:0;stroke-opacity:1;visibility:visible;display:inline;overflow:visible;enable-background:accumulate"
           sodipodi:type="arc" />
        <path
           transform="translate(-78.970672,90.042104)"
           d="M 1158.9286,402.71933 A 12.5,12.5 0 1 1 1133.9286,402.71933 A 12.5,12.5 0 1 1 1158.9286,402.71933 z"
           sodipodi:ry="12.5"
           sodipodi:rx="12.5"
           sodipodi:cy="402.71933"
           sodipodi:cx="1146.4286"
           id="path3376"
           style="opacity:1;fill:#ffffff;fill-opacity:0.17010307;fill-rule:nonzero;stroke:none;stroke-width:1;stroke-linecap:round;stroke-linejoin:miter;marker:none;marker-start:none;marker-mid:none;marker-end:none;stroke-miterlimit:7;stroke-dasharray:none;stroke-dashoffset:0;stroke-opacity:1;visibility:visible;display:inline;overflow:visible;enable-background:accumulate"
           sodipodi:type="arc" />
      </g>
      <path
         sodipodi:type="arc"
         style="opacity:1;fill:#ffffff;fill-opacity:1;fill-rule:nonzero;stroke:none;stroke-width:1;stroke-linecap:round;stroke-linejoin:miter;marker:none;marker-start:none;marker-mid:none;marker-end:none;stroke-miterlimit:7;stroke-dasharray:none;stroke-dashoffset:0;stroke-opacity:1;visibility:visible;display:inline;overflow:visible;enable-background:accumulate"
         id="path3378"
         sodipodi:cx="1146.4286"
         sodipodi:cy="402.71933"
         sodipodi:rx="12.5"
         sodipodi:ry="12.5"
         d="M 1158.9286,402.71933 A 12.5,12.5 0 1 1 1133.9286,402.71933 A 12.5,12.5 0 1 1 1158.9286,402.71933 z"
         transform="translate(269.07143,-10)" />
    </g>
    <g
       id="g3346"
       transform="matrix(1.0713009,0,0,1.0713009,-1077.0027,-34.199863)"
       inkscape:transform-center-y="-34.629664"
       inkscape:transform-center-x="-1.6654492e-05">
      <path
         d="M 1911.2804,406.5797 C 1913.2464,409.4197 1914.6664,412.11401 1915.5403,414.66265 C 1916.4141,417.13854 1916.851,419.94209 1916.8511,423.07328 C 1916.851,432.17573 1913.9018,440.07662 1908.0035,446.77599 C 1902.1051,453.47537 1894.7867,456.82506 1886.0485,456.82506 L 1849.3475,456.82506 L 1849.3475,347.04986 L 1886.7038,347.04986 C 1893.6944,347.04997 1899.6292,349.59864 1904.5082,354.69589 C 1909.4599,359.72053 1911.9357,365.80094 1911.9358,372.93714 C 1911.9357,375.77718 1911.7172,378.07099 1911.2804,379.81857 C 1910.8434,381.56631 1909.9332,383.64166 1908.5496,386.04463 C 1907.4573,388.01082 1905.6368,390.04976 1903.0882,392.16146 C 1901.1948,393.76355 1899.8841,394.92866 1899.1559,395.65679 L 1901.9959,397.62291 C 1904.6901,399.51627 1906.5471,400.97266 1907.5665,401.99207 C 1908.5859,402.93878 1909.8239,404.46798 1911.2804,406.5797 M 1869.118,436.72691 L 1880.0409,436.72691 C 1884.6285,436.72693 1888.5971,435.37978 1891.9468,432.68544 C 1895.3693,429.99115 1897.0806,426.53223 1897.0806,422.30868 C 1897.0806,418.23083 1895.5514,414.80832 1892.493,412.04115 C 1889.5074,409.27405 1885.9028,407.89049 1881.6793,407.89044 L 1869.118,407.89044 L 1869.118,436.72691 M 1868.8995,388.66613 L 1880.2593,388.66613 C 1883.2448,388.6662 1885.7571,387.5375 1887.7961,385.28003 C 1889.9078,382.94988 1890.9637,380.21916 1890.9638,377.08785 C 1890.9637,374.17516 1890.0899,371.62648 1888.3423,369.44181 C 1886.6674,367.25732 1884.4828,366.16503 1881.7885,366.16494 L 1868.8995,366.16494 L 1868.8995,388.66613"
         style="font-size:160.98127747px;font-style:normal;font-variant:normal;font-weight:bold;font-stretch:normal;text-align:start;text-anchor:start;fill:#ff2a2a;fill-opacity:1;stroke:none;stroke-width:1px;stroke-linecap:butt;stroke-linejoin:miter;stroke-opacity:1;font-family:Brandish;-inkscape-font-specification:Brandish Bold"
         id="path3348" />
      <path
         id="path3350"
         d="M 1940.1794,456.6066 L 1919.7536,456.49737 L 1919.7536,408.87351 C 1919.7536,401.59162 1921.0643,395.29275 1923.6858,389.97688 C 1926.3801,384.66113 1930.64,380.03711 1936.4656,376.10479 C 1940.0337,373.70183 1943.3835,371.99058 1946.5147,370.97102 C 1949.6459,369.87882 1953.0684,369.33267 1956.7822,369.33259 C 1957.7289,369.33267 1958.8575,369.40549 1960.1684,369.55104 C 1961.479,369.62395 1962.9718,369.806 1964.6468,370.09719 L 1964.6468,389.43073 C 1962.8262,388.92106 1960.9329,388.6662 1958.9668,388.66613 C 1955.1802,388.6662 1951.5392,389.94053 1948.0439,392.48914 C 1945.4952,394.30969 1943.529,396.38504 1942.1455,398.7152 C 1940.8348,401.04548 1940.1794,403.73979 1940.1794,406.79815 L 1940.1794,456.6066"
         style="font-size:160.98127747px;font-style:normal;font-variant:normal;font-weight:bold;font-stretch:normal;text-align:start;text-anchor:start;fill:#ff6600;fill-opacity:1;stroke:none;stroke-width:1px;stroke-linecap:butt;stroke-linejoin:miter;stroke-opacity:1;font-family:Brandish;-inkscape-font-specification:Brandish Bold" />
      <path
         d="M 1969.529,375.66787 L 1988.098,375.66787 L 1988.098,456.38814 L 1969.529,456.38814 L 1969.529,375.66787 M 1979.0319,370.31565 C 1975.5366,370.31573 1972.8059,369.18703 1970.8397,366.92955 C 1968.8736,364.67224 1967.8905,362.01433 1967.8905,358.95583 C 1967.8905,355.97033 1968.8372,353.42166 1970.7306,351.30979 C 1972.6967,349.19814 1975.4638,348.14226 1979.0319,348.14215 C 1982.236,348.14226 1984.821,349.30736 1986.7872,351.63748 C 1988.5349,353.74934 1989.4087,356.29802 1989.4087,359.28351 C 1989.4087,362.19638 1988.462,364.78147 1986.5688,367.03877 C 1984.7482,369.22344 1982.236,370.31573 1979.0319,370.31565"
         style="font-size:160.98127747px;font-style:normal;font-variant:normal;font-weight:bold;font-stretch:normal;text-align:start;text-anchor:start;fill:#55d400;fill-opacity:1;stroke:none;stroke-width:1px;stroke-linecap:butt;stroke-linejoin:miter;stroke-opacity:1;font-family:Brandish;-inkscape-font-specification:Brandish Bold"
         id="path3352" />
      <path
         d="M 1995.9738,375.66787 L 2014.5427,375.66787 L 2014.5427,456.38814 L 1995.9738,456.38814 L 1995.9738,375.66787 M 2005.4768,370.31565 C 2001.9814,370.31573 1999.2506,369.18703 1997.2845,366.92955 C 1995.3184,364.67224 1994.3354,362.01433 1994.3354,358.95583 C 1994.3354,355.97033 1995.282,353.42166 1997.1753,351.30979 C 1999.1415,349.19814 2001.9086,348.14226 2005.4768,348.14215 C 2008.6807,348.14226 2011.2658,349.30736 2013.232,351.63748 C 2014.9797,353.74934 2015.8535,356.29802 2015.8535,359.28351 C 2015.8535,362.19638 2014.9068,364.78147 2013.0136,367.03877 C 2011.193,369.22344 2008.6807,370.31573 2005.4768,370.31565"
         style="font-size:160.98127747px;font-style:normal;font-variant:normal;font-weight:bold;font-stretch:normal;text-align:start;text-anchor:start;fill:#5f8dd3;fill-opacity:1;stroke:none;stroke-width:1px;stroke-linecap:butt;stroke-linejoin:miter;stroke-opacity:1;font-family:Brandish;-inkscape-font-specification:Brandish Bold"
         id="path3354" />
      <path
         id="path3356"
         d="M 2074.4116,435.30694 L 2074.4116,454.85894 C 2070.9162,455.73277 2067.3481,456.16969 2063.7072,456.16969 C 2051.692,456.16969 2041.4608,451.90975 2033.0138,443.38988 C 2024.5667,434.87004 2020.3433,424.56611 2020.3433,412.47806 C 2020.3433,400.60856 2024.5667,390.5595 2033.0138,382.33084 C 2041.5336,374.10234 2051.8012,369.98805 2063.8164,369.98796 C 2067.0204,369.98805 2070.4065,370.46137 2073.9747,371.40794 L 2073.9747,390.52302 C 2070.9891,389.13952 2067.7122,388.44774 2064.1441,388.44767 C 2057.5175,388.44774 2051.7284,390.63232 2046.7767,395.00141 C 2041.5336,399.66191 2038.9122,405.59668 2038.9122,412.80575 C 2038.9122,420.16054 2041.5336,426.20455 2046.7767,430.93777 C 2051.6556,435.37978 2057.4447,437.60076 2064.1441,437.60075 C 2067.785,437.60076 2071.2075,436.83616 2074.4116,435.30694"
         style="font-size:160.98127747px;font-style:normal;font-variant:normal;font-weight:bold;font-stretch:normal;text-align:start;text-anchor:start;fill:#ffcc00;fill-opacity:1;stroke:none;stroke-width:1px;stroke-linecap:butt;stroke-linejoin:miter;stroke-opacity:1;font-family:Brandish;-inkscape-font-specification:Brandish Bold" />
      <path
         id="path3358"
         d="M 2082.0753,456.82506 L 2082.0753,348.03292 L 2099.9889,348.03292 L 2099.9889,412.91498 L 2101.5181,412.91498 L 2122.4901,377.08785 L 2144.1174,377.08785 L 2121.3978,415.97339 L 2143.899,456.38814 L 2123.1455,456.38814 L 2101.5181,420.1241 L 2100.2074,420.1241 L 2100.2074,456.82506 L 2082.0753,456.82506"
         style="font-size:160.98127747px;font-style:normal;font-variant:normal;font-weight:bold;font-stretch:normal;text-align:start;text-anchor:start;fill:#8d5fd3;fill-opacity:1;stroke:none;stroke-width:1px;stroke-linecap:butt;stroke-linejoin:miter;stroke-opacity:1;font-family:Brandish;-inkscape-font-specification:Brandish Bold" />
      <path
         d="M 2180.1687,456.49737 C 2166.7699,456.49737 2156.1382,452.09181 2148.2738,443.28065 C 2141.2103,435.34337 2137.6785,425.58558 2137.6785,414.00727 C 2137.6785,402.28341 2141.2831,392.34357 2148.4923,384.18774 C 2156.5751,375.0854 2167.4616,370.53419 2181.1517,370.5341 C 2194.5504,370.53419 2205.1821,374.93976 2213.0466,383.75082 C 2220.11,391.6882 2223.6417,401.44598 2223.6418,413.02421 C 2223.6417,424.74816 2220.0372,434.68799 2212.8281,442.84374 C 2204.7451,451.94617 2193.8586,456.49737 2180.1687,456.49737 M 2182.0255,388.33844 C 2174.0882,388.33851 2167.7893,390.96 2163.1289,396.20293 C 2158.9054,400.93625 2156.7936,406.72539 2156.7936,413.57035 C 2156.7936,420.19696 2158.7962,425.76763 2162.8013,430.2824 C 2167.316,435.30696 2173.4328,437.81922 2181.1517,437.8192 C 2189.089,437.81922 2195.3878,435.19773 2200.0484,429.95471 C 2204.2718,425.22148 2206.3835,419.43235 2206.3836,412.58729 C 2206.3835,405.96078 2204.381,400.3901 2200.376,395.87525 C 2195.8611,390.85078 2189.7444,388.33851 2182.0255,388.33844"
         style="font-size:160.98127747px;font-style:normal;font-variant:normal;font-weight:bold;font-stretch:normal;text-align:start;text-anchor:start;fill:#ff2a2a;fill-opacity:1;stroke:none;stroke-width:1px;stroke-linecap:butt;stroke-linejoin:miter;stroke-opacity:1;font-family:Brandish;-inkscape-font-specification:Brandish Bold"
         id="path3360" />
      <path
         id="path3362"
         d="M 2227.237,371.40794 L 2246.3521,371.40794 L 2246.3521,420.34255 C 2246.3521,425.00303 2248.2818,428.86245 2252.1412,431.92083 C 2256.0006,434.97927 2260.479,436.50847 2265.5764,436.50846 C 2270.6009,436.50847 2274.97,435.0885 2278.6839,432.24853 C 2282.4704,429.33578 2284.3637,425.58558 2284.3638,420.99793 L 2284.3638,371.51717 L 2304.3527,371.51717 L 2304.3527,420.1241 C 2304.3526,430.10037 2300.0199,438.80228 2291.3544,446.22984 C 2283.2715,453.2205 2274.5695,456.71583 2265.2487,456.71583 C 2254.6899,456.71583 2245.6967,453.25691 2238.2691,446.33907 C 2230.9144,439.34843 2227.237,430.79216 2227.237,420.67024 L 2227.237,371.40794"
         style="font-size:160.98127747px;font-style:normal;font-variant:normal;font-weight:bold;font-stretch:normal;text-align:start;text-anchor:start;fill:#ec327d;fill-opacity:1;stroke:none;stroke-width:1px;stroke-linecap:butt;stroke-linejoin:miter;stroke-opacity:1;font-family:Brandish;-inkscape-font-specification:Brandish Bold" />
      <path
         id="path3364"
         d="M 2309.1631,347.37755 L 2327.5136,347.37755 L 2327.5136,369.22336 L 2340.1841,369.22336 L 2340.1841,388.44767 L 2327.5136,388.44767 L 2327.5136,424.71172 C 2327.5136,426.67787 2327.8412,428.38913 2328.4966,429.84548 C 2329.2248,431.30189 2330.3535,432.79469 2331.8827,434.32388 C 2334.7955,437.23667 2338.218,438.69305 2342.1502,438.69304 C 2343.461,438.69305 2344.4804,438.62024 2345.2087,438.47458 L 2345.2087,456.38814 C 2344.6989,456.38814 2344.1163,456.38814 2343.461,456.38814 C 2342.8784,456.46096 2342.4779,456.49737 2342.2595,456.49737 C 2338.9826,456.49737 2335.7785,455.98763 2332.6473,454.96817 C 2328.7879,453.73024 2324.528,451.50925 2319.8675,448.30519 C 2317.0276,446.33908 2314.5881,443.28067 2312.5492,439.12995 C 2310.2917,434.54235 2309.1631,429.88192 2309.1631,425.14864 L 2309.1631,347.37755"
         style="font-size:160.98127747px;font-style:normal;font-variant:normal;font-weight:bold;font-stretch:normal;text-align:start;text-anchor:start;fill:#8d5fd3;fill-opacity:1;stroke:none;stroke-width:1px;stroke-linecap:butt;stroke-linejoin:miter;stroke-opacity:1;font-family:Brandish;-inkscape-font-specification:Brandish Bold" />
    </g>
  </g>
</svg>
